M48
; DRILL file {KiCad 5.1.9-73d0e3b20d~88~ubuntu20.04.1} date Tue Jan 19 19:28:48 2021
; FORMAT={-:-/ absolute / inch / decimal}
; #@! TF.CreationDate,2021-01-19T19:28:48-06:00
; #@! TF.GenerationSoftware,Kicad,Pcbnew,5.1.9-73d0e3b20d~88~ubuntu20.04.1
FMAT,2
INCH
T1C0.0118
T2C0.0394
%
G90
G05
T1
X2.7402Y-0.9016
X2.7402Y-1.2441
X2.7402Y-1.4961
X2.7402Y-1.748
X2.7402Y-2.0
X2.7992Y-0.7598
X2.9843Y-0.7598
X3.0354Y-2.0
X3.2402Y-0.7598
X3.2441Y-1.189
X3.2441Y-1.3622
X3.2441Y-1.5354
X3.2441Y-1.7087
X3.2441Y-1.8819
X3.2913Y-1.189
X3.2913Y-1.3622
X3.2913Y-1.5354
X3.2913Y-1.7087
X3.2913Y-1.8819
X3.2992Y-2.0039
X3.4173Y-1.189
X3.4173Y-1.3622
X3.4173Y-1.5354
X3.4173Y-1.7087
X3.4173Y-1.8819
X3.4646Y-1.189
X3.4646Y-1.3622
X3.4646Y-1.5354
X3.4646Y-1.7087
X3.4646Y-1.8819
X3.5039Y-2.0039
X3.5354Y-0.7598
X3.5906Y-1.189
X3.5906Y-1.3622
X3.5906Y-1.5354
X3.5906Y-1.7087
X3.5906Y-1.8819
X3.6378Y-1.189
X3.6378Y-1.3622
X3.6378Y-1.5354
X3.6378Y-1.7087
X3.6378Y-1.8819
X3.6811Y-2.0039
X3.7441Y-1.6575
X3.7441Y-1.8976
X3.748Y-1.0236
X3.748Y-1.2756
X3.748Y-1.4331
X3.752Y-0.7638
X3.9862Y-0.8071
X3.9862Y-0.9744
X3.9862Y-1.1614
X3.9862Y-1.4075
X3.9862Y-1.6634
X3.9947Y-2.0669
X4.0256Y-0.7677
X4.2126Y-0.7677
X4.3241Y-2.0669
X4.5669Y-0.7677
X4.7204Y-2.0669
X4.8327Y-0.7677
X4.939Y-1.1811
X4.939Y-1.3346
X4.939Y-1.4882
X4.939Y-1.6417
X4.939Y-1.7953
X4.939Y-1.9488
X4.9902Y-1.1811
X4.9902Y-1.3346
X4.9902Y-1.4882
X4.9902Y-1.6417
X4.9902Y-1.7953
X4.9902Y-1.9488
X5.0689Y-0.7677
X5.0906Y-1.7953
X5.0925Y-1.1811
X5.0925Y-1.3346
X5.0925Y-1.4882
X5.0925Y-1.6417
X5.0925Y-1.9488
X5.0957Y-2.0669
X5.1437Y-1.1811
X5.1437Y-1.3346
X5.1437Y-1.4882
X5.1437Y-1.6417
X5.1437Y-1.7953
X5.1437Y-1.9488
X5.2461Y-1.1811
X5.2461Y-1.3346
X5.2461Y-1.4882
X5.2461Y-1.6417
X5.2461Y-1.7953
X5.2461Y-1.9488
X5.2972Y-1.1811
X5.2972Y-1.3346
X5.2972Y-1.4882
X5.2972Y-1.6417
X5.2972Y-1.7953
X5.2972Y-1.9488
X5.3248Y-0.7677
X5.3445Y-2.0669
X5.374Y-0.8169
X5.374Y-0.9843
X5.374Y-1.2992
X5.374Y-1.5748
X5.374Y-1.7815
X5.374Y-2.0374
X5.6299Y-0.8071
X5.6299Y-1.063
X5.6299Y-1.2992
X5.6299Y-1.5354
X5.6299Y-1.7913
X5.6299Y-2.0079
X5.6693Y-0.7677
X5.689Y-2.0669
X6.0433Y-2.0669
X6.063Y-0.7677
X6.3976Y-0.7677
X6.4173Y-2.0669
X6.4999Y-1.8215
X6.5012Y-1.1653
X6.5012Y-1.2966
X6.5012Y-1.4278
X6.5012Y-1.559
X6.5012Y-1.6903
X6.5026Y-1.9527
X6.5537Y-1.1653
X6.5537Y-1.2966
X6.5537Y-1.4278
X6.5537Y-1.559
X6.5537Y-1.6903
X6.5537Y-1.8215
X6.5537Y-1.9527
X6.6312Y-1.559
X6.6312Y-1.8215
X6.6325Y-1.2966
X6.6325Y-1.4278
X6.6325Y-1.6903
X6.6325Y-1.9527
X6.6338Y-1.1653
X6.6535Y-0.7677
X6.685Y-1.1653
X6.685Y-1.2966
X6.685Y-1.4278
X6.685Y-1.559
X6.685Y-1.6903
X6.685Y-1.8215
X6.685Y-1.9527
X6.752Y-2.0669
X6.7624Y-1.2966
X6.7624Y-1.559
X6.7637Y-1.1653
X6.7637Y-1.4278
X6.7637Y-1.6903
X6.7637Y-1.8215
X6.7637Y-1.9527
X6.8162Y-1.1653
X6.8162Y-1.2966
X6.8162Y-1.4278
X6.8162Y-1.559
X6.8162Y-1.6903
X6.8162Y-1.8215
X6.8162Y-1.9527
X6.8936Y-1.1653
X6.8949Y-1.2966
X6.8949Y-1.4278
X6.8949Y-1.559
X6.8949Y-1.6903
X6.8949Y-1.9527
X6.8963Y-1.8215
X6.9461Y-1.6903
X6.9474Y-1.2966
X6.9474Y-1.4278
X6.9474Y-1.559
X6.9474Y-1.8215
X6.9474Y-1.9527
X6.9487Y-1.1653
X7.0276Y-0.7677
X7.0669Y-0.8071
X7.0669Y-1.063
X7.0669Y-1.4567
X7.0669Y-1.752
X7.0669Y-2.0472
T2
X2.8307Y-1.4764
X2.8307Y-1.5764
X2.8307Y-1.6764
X2.8307Y-1.7764
X2.8307Y-1.8764
X2.8386Y-0.8386
X3.3394Y-0.8386
X3.4394Y-0.8386
X3.5394Y-0.8386
X4.0827Y-0.8504
X4.0945Y-1.3937
X4.0945Y-1.4937
X4.0945Y-1.5937
X4.0945Y-1.6937
X4.0945Y-1.7937
X4.0945Y-1.8937
X4.5689Y-0.8858
X4.6689Y-0.8858
X4.7689Y-0.8858
X5.7099Y-0.8753
X5.7211Y-1.2986
X5.7211Y-1.3986
X5.7211Y-1.4986
X5.7211Y-1.5986
X5.7211Y-1.6986
X5.7211Y-1.7986
X5.7211Y-1.8986
X6.0677Y-0.8674
X6.1677Y-0.8674
X6.2677Y-0.8674
X6.3677Y-0.8674
T0
M30
