%TF.GenerationSoftware,KiCad,Pcbnew,5.1.9-73d0e3b20d~88~ubuntu20.04.1*%
%TF.CreationDate,2021-01-19T19:28:40-06:00*%
%TF.ProjectId,typring-kicad,74797072-696e-4672-9d6b-696361642e6b,rev?*%
%TF.SameCoordinates,Original*%
%TF.FileFunction,Soldermask,Bot*%
%TF.FilePolarity,Negative*%
%FSLAX46Y46*%
G04 Gerber Fmt 4.6, Leading zero omitted, Abs format (unit mm)*
G04 Created by KiCad (PCBNEW 5.1.9-73d0e3b20d~88~ubuntu20.04.1) date 2021-01-19 19:28:40*
%MOMM*%
%LPD*%
G01*
G04 APERTURE LIST*
%ADD10C,0.150000*%
%ADD11O,1.700000X1.700000*%
%ADD12R,1.700000X1.700000*%
G04 APERTURE END LIST*
D10*
X179500000Y-27000000D02*
X179500000Y-20500000D01*
X179500000Y-37000000D02*
X179500000Y-27000000D01*
X179500000Y-44500000D02*
X179500000Y-37000000D01*
X179500000Y-52000000D02*
X179500000Y-44500000D01*
X179000000Y-52500000D02*
X179500000Y-52000000D01*
X171500000Y-52500000D02*
X179000000Y-52500000D01*
X163000000Y-52500000D02*
X171500000Y-52500000D01*
X153500000Y-52500000D02*
X163000000Y-52500000D01*
X144500000Y-52500000D02*
X153500000Y-52500000D01*
X143000000Y-51000000D02*
X144500000Y-52500000D01*
X143000000Y-45500000D02*
X143000000Y-51000000D01*
X143000000Y-39000000D02*
X143000000Y-45500000D01*
X143000000Y-33000000D02*
X143000000Y-39000000D01*
X143000000Y-27000000D02*
X143000000Y-33000000D01*
X143000000Y-20500000D02*
X143000000Y-27000000D01*
X144000000Y-19500000D02*
X143000000Y-20500000D01*
X154000000Y-19500000D02*
X144000000Y-19500000D01*
X162500000Y-19500000D02*
X154000000Y-19500000D01*
X169000000Y-19500000D02*
X162500000Y-19500000D01*
X178500000Y-19500000D02*
X169000000Y-19500000D01*
X179500000Y-20500000D02*
X178500000Y-19500000D01*
X135750000Y-52500000D02*
X136500000Y-51750000D01*
X129500000Y-52500000D02*
X135750000Y-52500000D01*
X120000000Y-52500000D02*
X129500000Y-52500000D01*
X109750000Y-52500000D02*
X120000000Y-52500000D01*
X101500000Y-52500000D02*
X109750000Y-52500000D01*
X101250000Y-52250000D02*
X101500000Y-52500000D01*
X101250000Y-42250000D02*
X101250000Y-52250000D01*
X101250000Y-35750000D02*
X101250000Y-42250000D01*
X101250000Y-29500000D02*
X101250000Y-35750000D01*
X101250000Y-24750000D02*
X101250000Y-29500000D01*
X101250000Y-20500000D02*
X101250000Y-24750000D01*
X102250000Y-19500000D02*
X101250000Y-20500000D01*
X107000000Y-19500000D02*
X102250000Y-19500000D01*
X116000000Y-19500000D02*
X107000000Y-19500000D01*
X122750000Y-19500000D02*
X116000000Y-19500000D01*
X128750000Y-19500000D02*
X122750000Y-19500000D01*
X135250000Y-19500000D02*
X128750000Y-19500000D01*
X136500000Y-20750000D02*
X135250000Y-19500000D01*
X136500000Y-25000000D02*
X136500000Y-20750000D01*
X136500000Y-33000000D02*
X136500000Y-25000000D01*
X136500000Y-40000000D02*
X136500000Y-33000000D01*
X136500000Y-45250000D02*
X136500000Y-40000000D01*
X136500000Y-51750000D02*
X136500000Y-45250000D01*
X95200000Y-32800000D02*
X95200000Y-32000000D01*
X95200000Y-26400000D02*
X95200000Y-25550000D01*
X95200000Y-19800000D02*
X95200000Y-19400000D01*
X94950000Y-19300000D02*
X95250000Y-19300000D01*
X89400000Y-19300000D02*
X90200000Y-19300000D01*
X81900000Y-19300000D02*
X82750000Y-19300000D01*
X75400000Y-19300000D02*
X76200000Y-19300000D01*
X70700000Y-19300000D02*
X71450000Y-19300000D01*
X69600000Y-22800000D02*
X69600000Y-22550000D01*
X69650000Y-23300000D02*
X69650000Y-22950000D01*
X69600000Y-31950000D02*
X69600000Y-31200000D01*
X69600000Y-38400000D02*
X69600000Y-37650000D01*
X69600000Y-44450000D02*
X69600000Y-44050000D01*
X69600000Y-44750000D02*
X69600000Y-44450000D01*
X69600000Y-50450000D02*
X69600000Y-50700000D01*
X69950000Y-50800000D02*
X69650000Y-50800000D01*
X77500000Y-50800000D02*
X76750000Y-50800000D01*
X84150000Y-50900000D02*
X83800000Y-50900000D01*
X83450000Y-50750000D02*
X83750000Y-50900000D01*
X88550000Y-50900000D02*
X89400000Y-50900000D01*
X93900000Y-50900000D02*
X93050000Y-50900000D01*
X95100000Y-48550000D02*
X95100000Y-47750000D01*
X95100000Y-41700000D02*
X95100000Y-42500000D01*
X95200000Y-36300000D02*
X95200000Y-36050000D01*
X95100000Y-36850000D02*
X95100000Y-36500000D01*
X69600000Y-44050000D02*
X69600000Y-38400000D01*
X69600000Y-50450000D02*
X69600000Y-44750000D01*
X76750000Y-50800000D02*
X69950000Y-50800000D01*
X83450000Y-50750000D02*
X77500000Y-50800000D01*
X88550000Y-50900000D02*
X84200000Y-50900000D01*
X93100000Y-50900000D02*
X89400000Y-50900000D01*
X95100000Y-50900000D02*
X95100000Y-48600000D01*
X93900000Y-50900000D02*
X95100000Y-50900000D01*
X95100000Y-47750000D02*
X95100000Y-42550000D01*
X95100000Y-41650000D02*
X95100000Y-36850000D01*
X95200000Y-36000000D02*
X95200000Y-32800000D01*
X95200000Y-32000000D02*
X95200000Y-26400000D01*
X95200000Y-19800000D02*
X95200000Y-25550000D01*
X90200000Y-19300000D02*
X94950000Y-19300000D01*
X82750000Y-19300000D02*
X89400000Y-19300000D01*
X76200000Y-19300000D02*
X81900000Y-19300000D01*
X71450000Y-19300000D02*
X75400000Y-19300000D01*
X70300000Y-19300000D02*
X70700000Y-19300000D01*
X69600000Y-20000000D02*
X70300000Y-19300000D01*
X69600000Y-22500000D02*
X69600000Y-20000000D01*
X69600000Y-31200000D02*
X69650000Y-23300000D01*
X69600000Y-37650000D02*
X69600000Y-31950000D01*
D11*
%TO.C,J9*%
X145316780Y-48223692D03*
X145316780Y-45683692D03*
X145316780Y-43143692D03*
X145316780Y-40603692D03*
X145316780Y-38063692D03*
X145316780Y-35523692D03*
D12*
X145316780Y-32983692D03*
%TD*%
%TO.C,J8*%
X145031883Y-22233111D03*
%TD*%
D11*
%TO.C,J7*%
X121130000Y-22500000D03*
X118590000Y-22500000D03*
D12*
X116050000Y-22500000D03*
%TD*%
D11*
%TO.C,J6*%
X104000000Y-48100000D03*
X104000000Y-45560000D03*
X104000000Y-43020000D03*
X104000000Y-40480000D03*
X104000000Y-37940000D03*
D12*
X104000000Y-35400000D03*
%TD*%
%TO.C,J5*%
X103700000Y-21600000D03*
%TD*%
D11*
%TO.C,J4*%
X161738408Y-22033113D03*
X159198408Y-22033113D03*
X156658408Y-22033113D03*
D12*
X154118408Y-22033113D03*
%TD*%
%TO.C,J3*%
X72100000Y-21300000D03*
%TD*%
D11*
%TO.C,J2*%
X71900000Y-47660000D03*
X71900000Y-45120000D03*
X71900000Y-42580000D03*
X71900000Y-40040000D03*
D12*
X71900000Y-37500000D03*
%TD*%
D11*
%TO.C,J1*%
X84820000Y-21300000D03*
X87360000Y-21300000D03*
D12*
X89900000Y-21300000D03*
%TD*%
M02*
