%TF.GenerationSoftware,KiCad,Pcbnew,5.1.9-73d0e3b20d~88~ubuntu20.04.1*%
%TF.CreationDate,2021-01-19T19:28:40-06:00*%
%TF.ProjectId,typring-kicad,74797072-696e-4672-9d6b-696361642e6b,rev?*%
%TF.SameCoordinates,Original*%
%TF.FileFunction,Copper,L1,Top*%
%TF.FilePolarity,Positive*%
%FSLAX46Y46*%
G04 Gerber Fmt 4.6, Leading zero omitted, Abs format (unit mm)*
G04 Created by KiCad (PCBNEW 5.1.9-73d0e3b20d~88~ubuntu20.04.1) date 2021-01-19 19:28:40*
%MOMM*%
%LPD*%
G01*
G04 APERTURE LIST*
%TA.AperFunction,EtchedComponent*%
%ADD10C,0.030000*%
%TD*%
%TA.AperFunction,EtchedComponent*%
%ADD11C,0.100000*%
%TD*%
%TA.AperFunction,ComponentPad*%
%ADD12O,1.700000X1.700000*%
%TD*%
%TA.AperFunction,ComponentPad*%
%ADD13R,1.700000X1.700000*%
%TD*%
%TA.AperFunction,ViaPad*%
%ADD14C,0.600000*%
%TD*%
%TA.AperFunction,Conductor*%
%ADD15C,0.127000*%
%TD*%
G04 APERTURE END LIST*
D10*
%TO.C,U150*%
G36*
X171001231Y-27935995D02*
G01*
X173928653Y-27935995D01*
X172464942Y-29399706D01*
X171001231Y-27935995D01*
G37*
X171001231Y-27935995D02*
X173928653Y-27935995D01*
X172464942Y-29399706D01*
X171001231Y-27935995D01*
%TO.C,U149*%
G36*
X164134633Y-47729915D02*
G01*
X164134633Y-44802493D01*
X165598344Y-46266204D01*
X164134633Y-47729915D01*
G37*
X164134633Y-47729915D02*
X164134633Y-44802493D01*
X165598344Y-46266204D01*
X164134633Y-47729915D01*
%TO.C,U148*%
G36*
X177461951Y-41469193D02*
G01*
X177461951Y-44396615D01*
X175998240Y-42932904D01*
X177461951Y-41469193D01*
G37*
X177461951Y-41469193D02*
X177461951Y-44396615D01*
X175998240Y-42932904D01*
X177461951Y-41469193D01*
%TO.C,U147*%
G36*
X177461951Y-28135993D02*
G01*
X177461951Y-31063415D01*
X175998240Y-29599704D01*
X177461951Y-28135993D01*
G37*
X177461951Y-28135993D02*
X177461951Y-31063415D01*
X175998240Y-29599704D01*
X177461951Y-28135993D01*
%TO.C,U146*%
G36*
X164134633Y-41063315D02*
G01*
X164134633Y-38135893D01*
X165598344Y-39599604D01*
X164134633Y-41063315D01*
G37*
X164134633Y-41063315D02*
X164134633Y-38135893D01*
X165598344Y-39599604D01*
X164134633Y-41063315D01*
%TO.C,U145*%
G36*
X177461951Y-34802593D02*
G01*
X177461951Y-37730015D01*
X175998240Y-36266304D01*
X177461951Y-34802593D01*
G37*
X177461951Y-34802593D02*
X177461951Y-37730015D01*
X175998240Y-36266304D01*
X177461951Y-34802593D01*
%TO.C,U144*%
G36*
X177261953Y-51263213D02*
G01*
X174334531Y-51263213D01*
X175798242Y-49799502D01*
X177261953Y-51263213D01*
G37*
X177261953Y-51263213D02*
X174334531Y-51263213D01*
X175798242Y-49799502D01*
X177261953Y-51263213D01*
%TO.C,U143*%
G36*
X177461951Y-38135893D02*
G01*
X177461951Y-41063315D01*
X175998240Y-39599604D01*
X177461951Y-38135893D01*
G37*
X177461951Y-38135893D02*
X177461951Y-41063315D01*
X175998240Y-39599604D01*
X177461951Y-38135893D01*
%TO.C,U136*%
G36*
X164134633Y-37730015D02*
G01*
X164134633Y-34802593D01*
X165598344Y-36266304D01*
X164134633Y-37730015D01*
G37*
X164134633Y-37730015D02*
X164134633Y-34802593D01*
X165598344Y-36266304D01*
X164134633Y-37730015D01*
%TO.C,U135*%
G36*
X177461951Y-31469293D02*
G01*
X177461951Y-34396715D01*
X175998240Y-32933004D01*
X177461951Y-31469293D01*
G37*
X177461951Y-31469293D02*
X177461951Y-34396715D01*
X175998240Y-32933004D01*
X177461951Y-31469293D01*
%TO.C,U122*%
G36*
X170595353Y-51263213D02*
G01*
X167667931Y-51263213D01*
X169131642Y-49799502D01*
X170595353Y-51263213D01*
G37*
X170595353Y-51263213D02*
X167667931Y-51263213D01*
X169131642Y-49799502D01*
X170595353Y-51263213D01*
%TO.C,U120*%
G36*
X164334631Y-27935995D02*
G01*
X167262053Y-27935995D01*
X165798342Y-29399706D01*
X164334631Y-27935995D01*
G37*
X164334631Y-27935995D02*
X167262053Y-27935995D01*
X165798342Y-29399706D01*
X164334631Y-27935995D01*
%TO.C,U113*%
G36*
X174334531Y-27935995D02*
G01*
X177261953Y-27935995D01*
X175798242Y-29399706D01*
X174334531Y-27935995D01*
G37*
X174334531Y-27935995D02*
X177261953Y-27935995D01*
X175798242Y-29399706D01*
X174334531Y-27935995D01*
%TO.C,U105*%
G36*
X164134633Y-51063215D02*
G01*
X164134633Y-48135793D01*
X165598344Y-49599504D01*
X164134633Y-51063215D01*
G37*
X164134633Y-51063215D02*
X164134633Y-48135793D01*
X165598344Y-49599504D01*
X164134633Y-51063215D01*
%TO.C,U101*%
G36*
X173928653Y-51263213D02*
G01*
X171001231Y-51263213D01*
X172464942Y-49799502D01*
X173928653Y-51263213D01*
G37*
X173928653Y-51263213D02*
X171001231Y-51263213D01*
X172464942Y-49799502D01*
X173928653Y-51263213D01*
%TO.C,U99*%
G36*
X177461951Y-48135793D02*
G01*
X177461951Y-51063215D01*
X175998240Y-49599504D01*
X177461951Y-48135793D01*
G37*
X177461951Y-48135793D02*
X177461951Y-51063215D01*
X175998240Y-49599504D01*
X177461951Y-48135793D01*
%TO.C,U61*%
G36*
X164134633Y-34396715D02*
G01*
X164134633Y-31469293D01*
X165598344Y-32933004D01*
X164134633Y-34396715D01*
G37*
X164134633Y-34396715D02*
X164134633Y-31469293D01*
X165598344Y-32933004D01*
X164134633Y-34396715D01*
%TO.C,U59*%
G36*
X164134633Y-44396615D02*
G01*
X164134633Y-41469193D01*
X165598344Y-42932904D01*
X164134633Y-44396615D01*
G37*
X164134633Y-44396615D02*
X164134633Y-41469193D01*
X165598344Y-42932904D01*
X164134633Y-44396615D01*
%TO.C,U55*%
G36*
X167262053Y-51263213D02*
G01*
X164334631Y-51263213D01*
X165798342Y-49799502D01*
X167262053Y-51263213D01*
G37*
X167262053Y-51263213D02*
X164334631Y-51263213D01*
X165798342Y-49799502D01*
X167262053Y-51263213D01*
%TO.C,U46*%
G36*
X164134633Y-31063415D02*
G01*
X164134633Y-28135993D01*
X165598344Y-29599704D01*
X164134633Y-31063415D01*
G37*
X164134633Y-31063415D02*
X164134633Y-28135993D01*
X165598344Y-29599704D01*
X164134633Y-31063415D01*
%TO.C,U44*%
G36*
X177461951Y-44802493D02*
G01*
X177461951Y-47729915D01*
X175998240Y-46266204D01*
X177461951Y-44802493D01*
G37*
X177461951Y-44802493D02*
X177461951Y-47729915D01*
X175998240Y-46266204D01*
X177461951Y-44802493D01*
%TO.C,U40*%
G36*
X167667931Y-27935995D02*
G01*
X170595353Y-27935995D01*
X169131642Y-29399706D01*
X167667931Y-27935995D01*
G37*
X167667931Y-27935995D02*
X170595353Y-27935995D01*
X169131642Y-29399706D01*
X167667931Y-27935995D01*
%TO.C,U142*%
G36*
X172262003Y-36263363D02*
G01*
X169334581Y-36263363D01*
X170798292Y-34799652D01*
X172262003Y-36263363D01*
G37*
X172262003Y-36263363D02*
X169334581Y-36263363D01*
X170798292Y-34799652D01*
X172262003Y-36263363D01*
G36*
X169334581Y-36263363D02*
G01*
X172262003Y-36263363D01*
X170798292Y-37727074D01*
X169334581Y-36263363D01*
G37*
X169334581Y-36263363D02*
X172262003Y-36263363D01*
X170798292Y-37727074D01*
X169334581Y-36263363D01*
%TO.C,U141*%
G36*
X173928653Y-31263413D02*
G01*
X171001231Y-31263413D01*
X172464942Y-29799702D01*
X173928653Y-31263413D01*
G37*
X173928653Y-31263413D02*
X171001231Y-31263413D01*
X172464942Y-29799702D01*
X173928653Y-31263413D01*
G36*
X171001231Y-31263413D02*
G01*
X173928653Y-31263413D01*
X172464942Y-32727124D01*
X171001231Y-31263413D01*
G37*
X171001231Y-31263413D02*
X173928653Y-31263413D01*
X172464942Y-32727124D01*
X171001231Y-31263413D01*
%TO.C,U140*%
G36*
X177261953Y-34596713D02*
G01*
X174334531Y-34596713D01*
X175798242Y-33133002D01*
X177261953Y-34596713D01*
G37*
X177261953Y-34596713D02*
X174334531Y-34596713D01*
X175798242Y-33133002D01*
X177261953Y-34596713D01*
G36*
X174334531Y-34596713D02*
G01*
X177261953Y-34596713D01*
X175798242Y-36060424D01*
X174334531Y-34596713D01*
G37*
X174334531Y-34596713D02*
X177261953Y-34596713D01*
X175798242Y-36060424D01*
X174334531Y-34596713D01*
%TO.C,U139*%
G36*
X170595353Y-31263413D02*
G01*
X167667931Y-31263413D01*
X169131642Y-29799702D01*
X170595353Y-31263413D01*
G37*
X170595353Y-31263413D02*
X167667931Y-31263413D01*
X169131642Y-29799702D01*
X170595353Y-31263413D01*
G36*
X167667931Y-31263413D02*
G01*
X170595353Y-31263413D01*
X169131642Y-32727124D01*
X167667931Y-31263413D01*
G37*
X167667931Y-31263413D02*
X170595353Y-31263413D01*
X169131642Y-32727124D01*
X167667931Y-31263413D01*
%TO.C,U138*%
G36*
X174134533Y-31063415D02*
G01*
X174134533Y-28135993D01*
X175598244Y-29599704D01*
X174134533Y-31063415D01*
G37*
X174134533Y-31063415D02*
X174134533Y-28135993D01*
X175598244Y-29599704D01*
X174134533Y-31063415D01*
G36*
X174134533Y-28135993D02*
G01*
X174134533Y-31063415D01*
X172670822Y-29599704D01*
X174134533Y-28135993D01*
G37*
X174134533Y-28135993D02*
X174134533Y-31063415D01*
X172670822Y-29599704D01*
X174134533Y-28135993D01*
%TO.C,U137*%
G36*
X175595303Y-32930063D02*
G01*
X172667881Y-32930063D01*
X174131592Y-31466352D01*
X175595303Y-32930063D01*
G37*
X175595303Y-32930063D02*
X172667881Y-32930063D01*
X174131592Y-31466352D01*
X175595303Y-32930063D01*
G36*
X172667881Y-32930063D02*
G01*
X175595303Y-32930063D01*
X174131592Y-34393774D01*
X172667881Y-32930063D01*
G37*
X172667881Y-32930063D02*
X175595303Y-32930063D01*
X174131592Y-34393774D01*
X172667881Y-32930063D01*
%TO.C,U134*%
G36*
X173928653Y-37930013D02*
G01*
X171001231Y-37930013D01*
X172464942Y-36466302D01*
X173928653Y-37930013D01*
G37*
X173928653Y-37930013D02*
X171001231Y-37930013D01*
X172464942Y-36466302D01*
X173928653Y-37930013D01*
G36*
X171001231Y-37930013D02*
G01*
X173928653Y-37930013D01*
X172464942Y-39393724D01*
X171001231Y-37930013D01*
G37*
X171001231Y-37930013D02*
X173928653Y-37930013D01*
X172464942Y-39393724D01*
X171001231Y-37930013D01*
%TO.C,U133*%
G36*
X167262053Y-31263413D02*
G01*
X164334631Y-31263413D01*
X165798342Y-29799702D01*
X167262053Y-31263413D01*
G37*
X167262053Y-31263413D02*
X164334631Y-31263413D01*
X165798342Y-29799702D01*
X167262053Y-31263413D01*
G36*
X164334631Y-31263413D02*
G01*
X167262053Y-31263413D01*
X165798342Y-32727124D01*
X164334631Y-31263413D01*
G37*
X164334631Y-31263413D02*
X167262053Y-31263413D01*
X165798342Y-32727124D01*
X164334631Y-31263413D01*
%TO.C,U132*%
G36*
X168928703Y-36263363D02*
G01*
X166001281Y-36263363D01*
X167464992Y-34799652D01*
X168928703Y-36263363D01*
G37*
X168928703Y-36263363D02*
X166001281Y-36263363D01*
X167464992Y-34799652D01*
X168928703Y-36263363D01*
G36*
X166001281Y-36263363D02*
G01*
X168928703Y-36263363D01*
X167464992Y-37727074D01*
X166001281Y-36263363D01*
G37*
X166001281Y-36263363D02*
X168928703Y-36263363D01*
X167464992Y-37727074D01*
X166001281Y-36263363D01*
%TO.C,U131*%
G36*
X168928703Y-39596663D02*
G01*
X166001281Y-39596663D01*
X167464992Y-38132952D01*
X168928703Y-39596663D01*
G37*
X168928703Y-39596663D02*
X166001281Y-39596663D01*
X167464992Y-38132952D01*
X168928703Y-39596663D01*
G36*
X166001281Y-39596663D02*
G01*
X168928703Y-39596663D01*
X167464992Y-41060374D01*
X166001281Y-39596663D01*
G37*
X166001281Y-39596663D02*
X168928703Y-39596663D01*
X167464992Y-41060374D01*
X166001281Y-39596663D01*
%TO.C,U130*%
G36*
X177261953Y-37930013D02*
G01*
X174334531Y-37930013D01*
X175798242Y-36466302D01*
X177261953Y-37930013D01*
G37*
X177261953Y-37930013D02*
X174334531Y-37930013D01*
X175798242Y-36466302D01*
X177261953Y-37930013D01*
G36*
X174334531Y-37930013D02*
G01*
X177261953Y-37930013D01*
X175798242Y-39393724D01*
X174334531Y-37930013D01*
G37*
X174334531Y-37930013D02*
X177261953Y-37930013D01*
X175798242Y-39393724D01*
X174334531Y-37930013D01*
%TO.C,U129*%
G36*
X172262003Y-32930063D02*
G01*
X169334581Y-32930063D01*
X170798292Y-31466352D01*
X172262003Y-32930063D01*
G37*
X172262003Y-32930063D02*
X169334581Y-32930063D01*
X170798292Y-31466352D01*
X172262003Y-32930063D01*
G36*
X169334581Y-32930063D02*
G01*
X172262003Y-32930063D01*
X170798292Y-34393774D01*
X169334581Y-32930063D01*
G37*
X169334581Y-32930063D02*
X172262003Y-32930063D01*
X170798292Y-34393774D01*
X169334581Y-32930063D01*
%TO.C,U128*%
G36*
X177261953Y-31263413D02*
G01*
X174334531Y-31263413D01*
X175798242Y-29799702D01*
X177261953Y-31263413D01*
G37*
X177261953Y-31263413D02*
X174334531Y-31263413D01*
X175798242Y-29799702D01*
X177261953Y-31263413D01*
G36*
X174334531Y-31263413D02*
G01*
X177261953Y-31263413D01*
X175798242Y-32727124D01*
X174334531Y-31263413D01*
G37*
X174334531Y-31263413D02*
X177261953Y-31263413D01*
X175798242Y-32727124D01*
X174334531Y-31263413D01*
%TO.C,U127*%
G36*
X167262053Y-41263313D02*
G01*
X164334631Y-41263313D01*
X165798342Y-39799602D01*
X167262053Y-41263313D01*
G37*
X167262053Y-41263313D02*
X164334631Y-41263313D01*
X165798342Y-39799602D01*
X167262053Y-41263313D01*
G36*
X164334631Y-41263313D02*
G01*
X167262053Y-41263313D01*
X165798342Y-42727024D01*
X164334631Y-41263313D01*
G37*
X164334631Y-41263313D02*
X167262053Y-41263313D01*
X165798342Y-42727024D01*
X164334631Y-41263313D01*
%TO.C,U126*%
G36*
X168928703Y-32930063D02*
G01*
X166001281Y-32930063D01*
X167464992Y-31466352D01*
X168928703Y-32930063D01*
G37*
X168928703Y-32930063D02*
X166001281Y-32930063D01*
X167464992Y-31466352D01*
X168928703Y-32930063D01*
G36*
X166001281Y-32930063D02*
G01*
X168928703Y-32930063D01*
X167464992Y-34393774D01*
X166001281Y-32930063D01*
G37*
X166001281Y-32930063D02*
X168928703Y-32930063D01*
X167464992Y-34393774D01*
X166001281Y-32930063D01*
%TO.C,U125*%
G36*
X170595353Y-34596713D02*
G01*
X167667931Y-34596713D01*
X169131642Y-33133002D01*
X170595353Y-34596713D01*
G37*
X170595353Y-34596713D02*
X167667931Y-34596713D01*
X169131642Y-33133002D01*
X170595353Y-34596713D01*
G36*
X167667931Y-34596713D02*
G01*
X170595353Y-34596713D01*
X169131642Y-36060424D01*
X167667931Y-34596713D01*
G37*
X167667931Y-34596713D02*
X170595353Y-34596713D01*
X169131642Y-36060424D01*
X167667931Y-34596713D01*
%TO.C,U124*%
G36*
X170595353Y-37930013D02*
G01*
X167667931Y-37930013D01*
X169131642Y-36466302D01*
X170595353Y-37930013D01*
G37*
X170595353Y-37930013D02*
X167667931Y-37930013D01*
X169131642Y-36466302D01*
X170595353Y-37930013D01*
G36*
X167667931Y-37930013D02*
G01*
X170595353Y-37930013D01*
X169131642Y-39393724D01*
X167667931Y-37930013D01*
G37*
X167667931Y-37930013D02*
X170595353Y-37930013D01*
X169131642Y-39393724D01*
X167667931Y-37930013D01*
%TO.C,U123*%
G36*
X173928653Y-47929913D02*
G01*
X171001231Y-47929913D01*
X172464942Y-46466202D01*
X173928653Y-47929913D01*
G37*
X173928653Y-47929913D02*
X171001231Y-47929913D01*
X172464942Y-46466202D01*
X173928653Y-47929913D01*
G36*
X171001231Y-47929913D02*
G01*
X173928653Y-47929913D01*
X172464942Y-49393624D01*
X171001231Y-47929913D01*
G37*
X171001231Y-47929913D02*
X173928653Y-47929913D01*
X172464942Y-49393624D01*
X171001231Y-47929913D01*
%TO.C,U121*%
G36*
X167262053Y-37930013D02*
G01*
X164334631Y-37930013D01*
X165798342Y-36466302D01*
X167262053Y-37930013D01*
G37*
X167262053Y-37930013D02*
X164334631Y-37930013D01*
X165798342Y-36466302D01*
X167262053Y-37930013D01*
G36*
X164334631Y-37930013D02*
G01*
X167262053Y-37930013D01*
X165798342Y-39393724D01*
X164334631Y-37930013D01*
G37*
X164334631Y-37930013D02*
X167262053Y-37930013D01*
X165798342Y-39393724D01*
X164334631Y-37930013D01*
%TO.C,U119*%
G36*
X173928653Y-44596613D02*
G01*
X171001231Y-44596613D01*
X172464942Y-43132902D01*
X173928653Y-44596613D01*
G37*
X173928653Y-44596613D02*
X171001231Y-44596613D01*
X172464942Y-43132902D01*
X173928653Y-44596613D01*
G36*
X171001231Y-44596613D02*
G01*
X173928653Y-44596613D01*
X172464942Y-46060324D01*
X171001231Y-44596613D01*
G37*
X171001231Y-44596613D02*
X173928653Y-44596613D01*
X172464942Y-46060324D01*
X171001231Y-44596613D01*
%TO.C,U118*%
G36*
X175595303Y-39596663D02*
G01*
X172667881Y-39596663D01*
X174131592Y-38132952D01*
X175595303Y-39596663D01*
G37*
X175595303Y-39596663D02*
X172667881Y-39596663D01*
X174131592Y-38132952D01*
X175595303Y-39596663D01*
G36*
X172667881Y-39596663D02*
G01*
X175595303Y-39596663D01*
X174131592Y-41060374D01*
X172667881Y-39596663D01*
G37*
X172667881Y-39596663D02*
X175595303Y-39596663D01*
X174131592Y-41060374D01*
X172667881Y-39596663D01*
%TO.C,U117*%
G36*
X175595303Y-36263363D02*
G01*
X172667881Y-36263363D01*
X174131592Y-34799652D01*
X175595303Y-36263363D01*
G37*
X175595303Y-36263363D02*
X172667881Y-36263363D01*
X174131592Y-34799652D01*
X175595303Y-36263363D01*
G36*
X172667881Y-36263363D02*
G01*
X175595303Y-36263363D01*
X174131592Y-37727074D01*
X172667881Y-36263363D01*
G37*
X172667881Y-36263363D02*
X175595303Y-36263363D01*
X174131592Y-37727074D01*
X172667881Y-36263363D01*
%TO.C,U116*%
G36*
X173928653Y-34596713D02*
G01*
X171001231Y-34596713D01*
X172464942Y-33133002D01*
X173928653Y-34596713D01*
G37*
X173928653Y-34596713D02*
X171001231Y-34596713D01*
X172464942Y-33133002D01*
X173928653Y-34596713D01*
G36*
X171001231Y-34596713D02*
G01*
X173928653Y-34596713D01*
X172464942Y-36060424D01*
X171001231Y-34596713D01*
G37*
X171001231Y-34596713D02*
X173928653Y-34596713D01*
X172464942Y-36060424D01*
X171001231Y-34596713D01*
%TO.C,U115*%
G36*
X167262053Y-44596613D02*
G01*
X164334631Y-44596613D01*
X165798342Y-43132902D01*
X167262053Y-44596613D01*
G37*
X167262053Y-44596613D02*
X164334631Y-44596613D01*
X165798342Y-43132902D01*
X167262053Y-44596613D01*
G36*
X164334631Y-44596613D02*
G01*
X167262053Y-44596613D01*
X165798342Y-46060324D01*
X164334631Y-44596613D01*
G37*
X164334631Y-44596613D02*
X167262053Y-44596613D01*
X165798342Y-46060324D01*
X164334631Y-44596613D01*
%TO.C,U114*%
G36*
X167262053Y-34596713D02*
G01*
X164334631Y-34596713D01*
X165798342Y-33133002D01*
X167262053Y-34596713D01*
G37*
X167262053Y-34596713D02*
X164334631Y-34596713D01*
X165798342Y-33133002D01*
X167262053Y-34596713D01*
G36*
X164334631Y-34596713D02*
G01*
X167262053Y-34596713D01*
X165798342Y-36060424D01*
X164334631Y-34596713D01*
G37*
X164334631Y-34596713D02*
X167262053Y-34596713D01*
X165798342Y-36060424D01*
X164334631Y-34596713D01*
%TO.C,U112*%
G36*
X177261953Y-41263313D02*
G01*
X174334531Y-41263313D01*
X175798242Y-39799602D01*
X177261953Y-41263313D01*
G37*
X177261953Y-41263313D02*
X174334531Y-41263313D01*
X175798242Y-39799602D01*
X177261953Y-41263313D01*
G36*
X174334531Y-41263313D02*
G01*
X177261953Y-41263313D01*
X175798242Y-42727024D01*
X174334531Y-41263313D01*
G37*
X174334531Y-41263313D02*
X177261953Y-41263313D01*
X175798242Y-42727024D01*
X174334531Y-41263313D01*
%TO.C,U111*%
G36*
X175595303Y-46263263D02*
G01*
X172667881Y-46263263D01*
X174131592Y-44799552D01*
X175595303Y-46263263D01*
G37*
X175595303Y-46263263D02*
X172667881Y-46263263D01*
X174131592Y-44799552D01*
X175595303Y-46263263D01*
G36*
X172667881Y-46263263D02*
G01*
X175595303Y-46263263D01*
X174131592Y-47726974D01*
X172667881Y-46263263D01*
G37*
X172667881Y-46263263D02*
X175595303Y-46263263D01*
X174131592Y-47726974D01*
X172667881Y-46263263D01*
%TO.C,U110*%
G36*
X168928703Y-46263263D02*
G01*
X166001281Y-46263263D01*
X167464992Y-44799552D01*
X168928703Y-46263263D01*
G37*
X168928703Y-46263263D02*
X166001281Y-46263263D01*
X167464992Y-44799552D01*
X168928703Y-46263263D01*
G36*
X166001281Y-46263263D02*
G01*
X168928703Y-46263263D01*
X167464992Y-47726974D01*
X166001281Y-46263263D01*
G37*
X166001281Y-46263263D02*
X168928703Y-46263263D01*
X167464992Y-47726974D01*
X166001281Y-46263263D01*
%TO.C,U109*%
G36*
X170595353Y-44596613D02*
G01*
X167667931Y-44596613D01*
X169131642Y-43132902D01*
X170595353Y-44596613D01*
G37*
X170595353Y-44596613D02*
X167667931Y-44596613D01*
X169131642Y-43132902D01*
X170595353Y-44596613D01*
G36*
X167667931Y-44596613D02*
G01*
X170595353Y-44596613D01*
X169131642Y-46060324D01*
X167667931Y-44596613D01*
G37*
X167667931Y-44596613D02*
X170595353Y-44596613D01*
X169131642Y-46060324D01*
X167667931Y-44596613D01*
%TO.C,U108*%
G36*
X172262003Y-49596563D02*
G01*
X169334581Y-49596563D01*
X170798292Y-48132852D01*
X172262003Y-49596563D01*
G37*
X172262003Y-49596563D02*
X169334581Y-49596563D01*
X170798292Y-48132852D01*
X172262003Y-49596563D01*
G36*
X169334581Y-49596563D02*
G01*
X172262003Y-49596563D01*
X170798292Y-51060274D01*
X169334581Y-49596563D01*
G37*
X169334581Y-49596563D02*
X172262003Y-49596563D01*
X170798292Y-51060274D01*
X169334581Y-49596563D01*
%TO.C,U107*%
G36*
X175595303Y-49596563D02*
G01*
X172667881Y-49596563D01*
X174131592Y-48132852D01*
X175595303Y-49596563D01*
G37*
X175595303Y-49596563D02*
X172667881Y-49596563D01*
X174131592Y-48132852D01*
X175595303Y-49596563D01*
G36*
X172667881Y-49596563D02*
G01*
X175595303Y-49596563D01*
X174131592Y-51060274D01*
X172667881Y-49596563D01*
G37*
X172667881Y-49596563D02*
X175595303Y-49596563D01*
X174131592Y-51060274D01*
X172667881Y-49596563D01*
%TO.C,U106*%
G36*
X177261953Y-47929913D02*
G01*
X174334531Y-47929913D01*
X175798242Y-46466202D01*
X177261953Y-47929913D01*
G37*
X177261953Y-47929913D02*
X174334531Y-47929913D01*
X175798242Y-46466202D01*
X177261953Y-47929913D01*
G36*
X174334531Y-47929913D02*
G01*
X177261953Y-47929913D01*
X175798242Y-49393624D01*
X174334531Y-47929913D01*
G37*
X174334531Y-47929913D02*
X177261953Y-47929913D01*
X175798242Y-49393624D01*
X174334531Y-47929913D01*
%TO.C,U104*%
G36*
X168928703Y-29596763D02*
G01*
X166001281Y-29596763D01*
X167464992Y-28133052D01*
X168928703Y-29596763D01*
G37*
X168928703Y-29596763D02*
X166001281Y-29596763D01*
X167464992Y-28133052D01*
X168928703Y-29596763D01*
G36*
X166001281Y-29596763D02*
G01*
X168928703Y-29596763D01*
X167464992Y-31060474D01*
X166001281Y-29596763D01*
G37*
X166001281Y-29596763D02*
X168928703Y-29596763D01*
X167464992Y-31060474D01*
X166001281Y-29596763D01*
%TO.C,U103*%
G36*
X168928703Y-49596563D02*
G01*
X166001281Y-49596563D01*
X167464992Y-48132852D01*
X168928703Y-49596563D01*
G37*
X168928703Y-49596563D02*
X166001281Y-49596563D01*
X167464992Y-48132852D01*
X168928703Y-49596563D01*
G36*
X166001281Y-49596563D02*
G01*
X168928703Y-49596563D01*
X167464992Y-51060274D01*
X166001281Y-49596563D01*
G37*
X166001281Y-49596563D02*
X168928703Y-49596563D01*
X167464992Y-51060274D01*
X166001281Y-49596563D01*
%TO.C,U102*%
G36*
X175595303Y-42929963D02*
G01*
X172667881Y-42929963D01*
X174131592Y-41466252D01*
X175595303Y-42929963D01*
G37*
X175595303Y-42929963D02*
X172667881Y-42929963D01*
X174131592Y-41466252D01*
X175595303Y-42929963D01*
G36*
X172667881Y-42929963D02*
G01*
X175595303Y-42929963D01*
X174131592Y-44393674D01*
X172667881Y-42929963D01*
G37*
X172667881Y-42929963D02*
X175595303Y-42929963D01*
X174131592Y-44393674D01*
X172667881Y-42929963D01*
%TO.C,U100*%
G36*
X172262003Y-46263263D02*
G01*
X169334581Y-46263263D01*
X170798292Y-44799552D01*
X172262003Y-46263263D01*
G37*
X172262003Y-46263263D02*
X169334581Y-46263263D01*
X170798292Y-44799552D01*
X172262003Y-46263263D01*
G36*
X169334581Y-46263263D02*
G01*
X172262003Y-46263263D01*
X170798292Y-47726974D01*
X169334581Y-46263263D01*
G37*
X169334581Y-46263263D02*
X172262003Y-46263263D01*
X170798292Y-47726974D01*
X169334581Y-46263263D01*
%TO.C,U98*%
G36*
X173928653Y-41263313D02*
G01*
X171001231Y-41263313D01*
X172464942Y-39799602D01*
X173928653Y-41263313D01*
G37*
X173928653Y-41263313D02*
X171001231Y-41263313D01*
X172464942Y-39799602D01*
X173928653Y-41263313D01*
G36*
X171001231Y-41263313D02*
G01*
X173928653Y-41263313D01*
X172464942Y-42727024D01*
X171001231Y-41263313D01*
G37*
X171001231Y-41263313D02*
X173928653Y-41263313D01*
X172464942Y-42727024D01*
X171001231Y-41263313D01*
%TO.C,U97*%
G36*
X170595353Y-47929913D02*
G01*
X167667931Y-47929913D01*
X169131642Y-46466202D01*
X170595353Y-47929913D01*
G37*
X170595353Y-47929913D02*
X167667931Y-47929913D01*
X169131642Y-46466202D01*
X170595353Y-47929913D01*
G36*
X167667931Y-47929913D02*
G01*
X170595353Y-47929913D01*
X169131642Y-49393624D01*
X167667931Y-47929913D01*
G37*
X167667931Y-47929913D02*
X170595353Y-47929913D01*
X169131642Y-49393624D01*
X167667931Y-47929913D01*
%TO.C,U57*%
G36*
X172262003Y-39596663D02*
G01*
X169334581Y-39596663D01*
X170798292Y-38132952D01*
X172262003Y-39596663D01*
G37*
X172262003Y-39596663D02*
X169334581Y-39596663D01*
X170798292Y-38132952D01*
X172262003Y-39596663D01*
G36*
X169334581Y-39596663D02*
G01*
X172262003Y-39596663D01*
X170798292Y-41060374D01*
X169334581Y-39596663D01*
G37*
X169334581Y-39596663D02*
X172262003Y-39596663D01*
X170798292Y-41060374D01*
X169334581Y-39596663D01*
%TO.C,U47*%
G36*
X172262003Y-42929963D02*
G01*
X169334581Y-42929963D01*
X170798292Y-41466252D01*
X172262003Y-42929963D01*
G37*
X172262003Y-42929963D02*
X169334581Y-42929963D01*
X170798292Y-41466252D01*
X172262003Y-42929963D01*
G36*
X169334581Y-42929963D02*
G01*
X172262003Y-42929963D01*
X170798292Y-44393674D01*
X169334581Y-42929963D01*
G37*
X169334581Y-42929963D02*
X172262003Y-42929963D01*
X170798292Y-44393674D01*
X169334581Y-42929963D01*
%TO.C,U45*%
G36*
X167262053Y-47929913D02*
G01*
X164334631Y-47929913D01*
X165798342Y-46466202D01*
X167262053Y-47929913D01*
G37*
X167262053Y-47929913D02*
X164334631Y-47929913D01*
X165798342Y-46466202D01*
X167262053Y-47929913D01*
G36*
X164334631Y-47929913D02*
G01*
X167262053Y-47929913D01*
X165798342Y-49393624D01*
X164334631Y-47929913D01*
G37*
X164334631Y-47929913D02*
X167262053Y-47929913D01*
X165798342Y-49393624D01*
X164334631Y-47929913D01*
%TO.C,U43*%
G36*
X168928703Y-42929963D02*
G01*
X166001281Y-42929963D01*
X167464992Y-41466252D01*
X168928703Y-42929963D01*
G37*
X168928703Y-42929963D02*
X166001281Y-42929963D01*
X167464992Y-41466252D01*
X168928703Y-42929963D01*
G36*
X166001281Y-42929963D02*
G01*
X168928703Y-42929963D01*
X167464992Y-44393674D01*
X166001281Y-42929963D01*
G37*
X166001281Y-42929963D02*
X168928703Y-42929963D01*
X167464992Y-44393674D01*
X166001281Y-42929963D01*
%TO.C,U42*%
G36*
X170595353Y-41263313D02*
G01*
X167667931Y-41263313D01*
X169131642Y-39799602D01*
X170595353Y-41263313D01*
G37*
X170595353Y-41263313D02*
X167667931Y-41263313D01*
X169131642Y-39799602D01*
X170595353Y-41263313D01*
G36*
X167667931Y-41263313D02*
G01*
X170595353Y-41263313D01*
X169131642Y-42727024D01*
X167667931Y-41263313D01*
G37*
X167667931Y-41263313D02*
X170595353Y-41263313D01*
X169131642Y-42727024D01*
X167667931Y-41263313D01*
%TO.C,U39*%
G36*
X177261953Y-44596613D02*
G01*
X174334531Y-44596613D01*
X175798242Y-43132902D01*
X177261953Y-44596613D01*
G37*
X177261953Y-44596613D02*
X174334531Y-44596613D01*
X175798242Y-43132902D01*
X177261953Y-44596613D01*
G36*
X174334531Y-44596613D02*
G01*
X177261953Y-44596613D01*
X175798242Y-46060324D01*
X174334531Y-44596613D01*
G37*
X174334531Y-44596613D02*
X177261953Y-44596613D01*
X175798242Y-46060324D01*
X174334531Y-44596613D01*
%TO.C,U41*%
G36*
X170801233Y-31063415D02*
G01*
X170801233Y-28135993D01*
X172264944Y-29599704D01*
X170801233Y-31063415D01*
G37*
X170801233Y-31063415D02*
X170801233Y-28135993D01*
X172264944Y-29599704D01*
X170801233Y-31063415D01*
G36*
X170801233Y-28135993D02*
G01*
X170801233Y-31063415D01*
X169337522Y-29599704D01*
X170801233Y-28135993D01*
G37*
X170801233Y-28135993D02*
X170801233Y-31063415D01*
X169337522Y-29599704D01*
X170801233Y-28135993D01*
%TO.C,U96*%
G36*
X124153446Y-35646554D02*
G01*
X124153446Y-32153447D01*
X125900000Y-33900000D01*
X124153446Y-35646554D01*
G37*
X124153446Y-35646554D02*
X124153446Y-32153447D01*
X125900000Y-33900000D01*
X124153446Y-35646554D01*
%TO.C,U95*%
G36*
X131746554Y-31946554D02*
G01*
X128253447Y-31946554D01*
X130000000Y-30200000D01*
X131746554Y-31946554D01*
G37*
X131746554Y-31946554D02*
X128253447Y-31946554D01*
X130000000Y-30200000D01*
X131746554Y-31946554D01*
G36*
X131746554Y-31950000D02*
G01*
X128253447Y-31950000D01*
X130000000Y-33696554D01*
X131746554Y-31950000D01*
G37*
X131746554Y-31950000D02*
X128253447Y-31950000D01*
X130000000Y-33696554D01*
X131746554Y-31950000D01*
%TO.C,U94*%
G36*
X127846554Y-51446554D02*
G01*
X124353447Y-51446554D01*
X126100000Y-49700000D01*
X127846554Y-51446554D01*
G37*
X127846554Y-51446554D02*
X124353447Y-51446554D01*
X126100000Y-49700000D01*
X127846554Y-51446554D01*
%TO.C,U93*%
G36*
X127846554Y-43646554D02*
G01*
X124353447Y-43646554D01*
X126100000Y-41900000D01*
X127846554Y-43646554D01*
G37*
X127846554Y-43646554D02*
X124353447Y-43646554D01*
X126100000Y-41900000D01*
X127846554Y-43646554D01*
G36*
X127846554Y-43650000D02*
G01*
X124353447Y-43650000D01*
X126100000Y-45396554D01*
X127846554Y-43650000D01*
G37*
X127846554Y-43650000D02*
X124353447Y-43650000D01*
X126100000Y-45396554D01*
X127846554Y-43650000D01*
%TO.C,U92*%
G36*
X135846554Y-39953446D02*
G01*
X135846554Y-43446553D01*
X134100000Y-41700000D01*
X135846554Y-39953446D01*
G37*
X135846554Y-39953446D02*
X135846554Y-43446553D01*
X134100000Y-41700000D01*
X135846554Y-39953446D01*
%TO.C,U91*%
G36*
X129796554Y-45596554D02*
G01*
X126303447Y-45596554D01*
X128050000Y-43850000D01*
X129796554Y-45596554D01*
G37*
X129796554Y-45596554D02*
X126303447Y-45596554D01*
X128050000Y-43850000D01*
X129796554Y-45596554D01*
G36*
X129796554Y-45600000D02*
G01*
X126303447Y-45600000D01*
X128050000Y-47346554D01*
X129796554Y-45600000D01*
G37*
X129796554Y-45600000D02*
X126303447Y-45600000D01*
X128050000Y-47346554D01*
X129796554Y-45600000D01*
%TO.C,U90*%
G36*
X124153446Y-47346554D02*
G01*
X124153446Y-43853447D01*
X125900000Y-45600000D01*
X124153446Y-47346554D01*
G37*
X124153446Y-47346554D02*
X124153446Y-43853447D01*
X125900000Y-45600000D01*
X124153446Y-47346554D01*
%TO.C,U89*%
G36*
X133696554Y-41696554D02*
G01*
X130203447Y-41696554D01*
X131950000Y-39950000D01*
X133696554Y-41696554D01*
G37*
X133696554Y-41696554D02*
X130203447Y-41696554D01*
X131950000Y-39950000D01*
X133696554Y-41696554D01*
G36*
X133696554Y-41700000D02*
G01*
X130203447Y-41700000D01*
X131950000Y-43446554D01*
X133696554Y-41700000D01*
G37*
X133696554Y-41700000D02*
X130203447Y-41700000D01*
X131950000Y-43446554D01*
X133696554Y-41700000D01*
%TO.C,U88*%
G36*
X135846554Y-28253446D02*
G01*
X135846554Y-31746553D01*
X134100000Y-30000000D01*
X135846554Y-28253446D01*
G37*
X135846554Y-28253446D02*
X135846554Y-31746553D01*
X134100000Y-30000000D01*
X135846554Y-28253446D01*
%TO.C,U87*%
G36*
X132153446Y-28053446D02*
G01*
X135646553Y-28053446D01*
X133900000Y-29800000D01*
X132153446Y-28053446D01*
G37*
X132153446Y-28053446D02*
X135646553Y-28053446D01*
X133900000Y-29800000D01*
X132153446Y-28053446D01*
%TO.C,U86*%
G36*
X124153446Y-51246554D02*
G01*
X124153446Y-47753447D01*
X125900000Y-49500000D01*
X124153446Y-51246554D01*
G37*
X124153446Y-51246554D02*
X124153446Y-47753447D01*
X125900000Y-49500000D01*
X124153446Y-51246554D01*
%TO.C,U85*%
G36*
X129796554Y-37796554D02*
G01*
X126303447Y-37796554D01*
X128050000Y-36050000D01*
X129796554Y-37796554D01*
G37*
X129796554Y-37796554D02*
X126303447Y-37796554D01*
X128050000Y-36050000D01*
X129796554Y-37796554D01*
G36*
X129796554Y-37800000D02*
G01*
X126303447Y-37800000D01*
X128050000Y-39546554D01*
X129796554Y-37800000D01*
G37*
X129796554Y-37800000D02*
X126303447Y-37800000D01*
X128050000Y-39546554D01*
X129796554Y-37800000D01*
%TO.C,U84*%
G36*
X131746554Y-43646554D02*
G01*
X128253447Y-43646554D01*
X130000000Y-41900000D01*
X131746554Y-43646554D01*
G37*
X131746554Y-43646554D02*
X128253447Y-43646554D01*
X130000000Y-41900000D01*
X131746554Y-43646554D01*
G36*
X131746554Y-43650000D02*
G01*
X128253447Y-43650000D01*
X130000000Y-45396554D01*
X131746554Y-43650000D01*
G37*
X131746554Y-43650000D02*
X128253447Y-43650000D01*
X130000000Y-45396554D01*
X131746554Y-43650000D01*
%TO.C,U83*%
G36*
X135646554Y-35846554D02*
G01*
X132153447Y-35846554D01*
X133900000Y-34100000D01*
X135646554Y-35846554D01*
G37*
X135646554Y-35846554D02*
X132153447Y-35846554D01*
X133900000Y-34100000D01*
X135646554Y-35846554D01*
G36*
X135646554Y-35850000D02*
G01*
X132153447Y-35850000D01*
X133900000Y-37596554D01*
X135646554Y-35850000D01*
G37*
X135646554Y-35850000D02*
X132153447Y-35850000D01*
X133900000Y-37596554D01*
X135646554Y-35850000D01*
%TO.C,U82*%
G36*
X127846554Y-35846554D02*
G01*
X124353447Y-35846554D01*
X126100000Y-34100000D01*
X127846554Y-35846554D01*
G37*
X127846554Y-35846554D02*
X124353447Y-35846554D01*
X126100000Y-34100000D01*
X127846554Y-35846554D01*
G36*
X127846554Y-35850000D02*
G01*
X124353447Y-35850000D01*
X126100000Y-37596554D01*
X127846554Y-35850000D01*
G37*
X127846554Y-35850000D02*
X124353447Y-35850000D01*
X126100000Y-37596554D01*
X127846554Y-35850000D01*
%TO.C,U81*%
G36*
X124153446Y-43446554D02*
G01*
X124153446Y-39953447D01*
X125900000Y-41700000D01*
X124153446Y-43446554D01*
G37*
X124153446Y-43446554D02*
X124153446Y-39953447D01*
X125900000Y-41700000D01*
X124153446Y-43446554D01*
%TO.C,U80*%
G36*
X133696554Y-29996554D02*
G01*
X130203447Y-29996554D01*
X131950000Y-28250000D01*
X133696554Y-29996554D01*
G37*
X133696554Y-29996554D02*
X130203447Y-29996554D01*
X131950000Y-28250000D01*
X133696554Y-29996554D01*
G36*
X133696554Y-30000000D02*
G01*
X130203447Y-30000000D01*
X131950000Y-31746554D01*
X133696554Y-30000000D01*
G37*
X133696554Y-30000000D02*
X130203447Y-30000000D01*
X131950000Y-31746554D01*
X133696554Y-30000000D01*
%TO.C,U79*%
G36*
X133696554Y-33896554D02*
G01*
X130203447Y-33896554D01*
X131950000Y-32150000D01*
X133696554Y-33896554D01*
G37*
X133696554Y-33896554D02*
X130203447Y-33896554D01*
X131950000Y-32150000D01*
X133696554Y-33896554D01*
G36*
X133696554Y-33900000D02*
G01*
X130203447Y-33900000D01*
X131950000Y-35646554D01*
X133696554Y-33900000D01*
G37*
X133696554Y-33900000D02*
X130203447Y-33900000D01*
X131950000Y-35646554D01*
X133696554Y-33900000D01*
%TO.C,U78*%
G36*
X131746554Y-51446554D02*
G01*
X128253447Y-51446554D01*
X130000000Y-49700000D01*
X131746554Y-51446554D01*
G37*
X131746554Y-51446554D02*
X128253447Y-51446554D01*
X130000000Y-49700000D01*
X131746554Y-51446554D01*
%TO.C,U77*%
G36*
X133696554Y-45596554D02*
G01*
X130203447Y-45596554D01*
X131950000Y-43850000D01*
X133696554Y-45596554D01*
G37*
X133696554Y-45596554D02*
X130203447Y-45596554D01*
X131950000Y-43850000D01*
X133696554Y-45596554D01*
G36*
X133696554Y-45600000D02*
G01*
X130203447Y-45600000D01*
X131950000Y-47346554D01*
X133696554Y-45600000D01*
G37*
X133696554Y-45600000D02*
X130203447Y-45600000D01*
X131950000Y-47346554D01*
X133696554Y-45600000D01*
%TO.C,U76*%
G36*
X135646554Y-31946554D02*
G01*
X132153447Y-31946554D01*
X133900000Y-30200000D01*
X135646554Y-31946554D01*
G37*
X135646554Y-31946554D02*
X132153447Y-31946554D01*
X133900000Y-30200000D01*
X135646554Y-31946554D01*
G36*
X135646554Y-31950000D02*
G01*
X132153447Y-31950000D01*
X133900000Y-33696554D01*
X135646554Y-31950000D01*
G37*
X135646554Y-31950000D02*
X132153447Y-31950000D01*
X133900000Y-33696554D01*
X135646554Y-31950000D01*
%TO.C,U75*%
G36*
X135646554Y-39746554D02*
G01*
X132153447Y-39746554D01*
X133900000Y-38000000D01*
X135646554Y-39746554D01*
G37*
X135646554Y-39746554D02*
X132153447Y-39746554D01*
X133900000Y-38000000D01*
X135646554Y-39746554D01*
G36*
X135646554Y-39750000D02*
G01*
X132153447Y-39750000D01*
X133900000Y-41496554D01*
X135646554Y-39750000D01*
G37*
X135646554Y-39750000D02*
X132153447Y-39750000D01*
X133900000Y-41496554D01*
X135646554Y-39750000D01*
%TO.C,U74*%
G36*
X131746554Y-35846554D02*
G01*
X128253447Y-35846554D01*
X130000000Y-34100000D01*
X131746554Y-35846554D01*
G37*
X131746554Y-35846554D02*
X128253447Y-35846554D01*
X130000000Y-34100000D01*
X131746554Y-35846554D01*
G36*
X131746554Y-35850000D02*
G01*
X128253447Y-35850000D01*
X130000000Y-37596554D01*
X131746554Y-35850000D01*
G37*
X131746554Y-35850000D02*
X128253447Y-35850000D01*
X130000000Y-37596554D01*
X131746554Y-35850000D01*
%TO.C,U73*%
G36*
X131746554Y-39746554D02*
G01*
X128253447Y-39746554D01*
X130000000Y-38000000D01*
X131746554Y-39746554D01*
G37*
X131746554Y-39746554D02*
X128253447Y-39746554D01*
X130000000Y-38000000D01*
X131746554Y-39746554D01*
G36*
X131746554Y-39750000D02*
G01*
X128253447Y-39750000D01*
X130000000Y-41496554D01*
X131746554Y-39750000D01*
G37*
X131746554Y-39750000D02*
X128253447Y-39750000D01*
X130000000Y-41496554D01*
X131746554Y-39750000D01*
%TO.C,U72*%
G36*
X135646554Y-47546554D02*
G01*
X132153447Y-47546554D01*
X133900000Y-45800000D01*
X135646554Y-47546554D01*
G37*
X135646554Y-47546554D02*
X132153447Y-47546554D01*
X133900000Y-45800000D01*
X135646554Y-47546554D01*
G36*
X135646554Y-47550000D02*
G01*
X132153447Y-47550000D01*
X133900000Y-49296554D01*
X135646554Y-47550000D01*
G37*
X135646554Y-47550000D02*
X132153447Y-47550000D01*
X133900000Y-49296554D01*
X135646554Y-47550000D01*
%TO.C,U71*%
G36*
X133696554Y-49496554D02*
G01*
X130203447Y-49496554D01*
X131950000Y-47750000D01*
X133696554Y-49496554D01*
G37*
X133696554Y-49496554D02*
X130203447Y-49496554D01*
X131950000Y-47750000D01*
X133696554Y-49496554D01*
G36*
X133696554Y-49500000D02*
G01*
X130203447Y-49500000D01*
X131950000Y-51246554D01*
X133696554Y-49500000D01*
G37*
X133696554Y-49500000D02*
X130203447Y-49500000D01*
X131950000Y-51246554D01*
X133696554Y-49500000D01*
%TO.C,U70*%
G36*
X131746554Y-47546554D02*
G01*
X128253447Y-47546554D01*
X130000000Y-45800000D01*
X131746554Y-47546554D01*
G37*
X131746554Y-47546554D02*
X128253447Y-47546554D01*
X130000000Y-45800000D01*
X131746554Y-47546554D01*
G36*
X131746554Y-47550000D02*
G01*
X128253447Y-47550000D01*
X130000000Y-49296554D01*
X131746554Y-47550000D01*
G37*
X131746554Y-47550000D02*
X128253447Y-47550000D01*
X130000000Y-49296554D01*
X131746554Y-47550000D01*
%TO.C,U69*%
G36*
X135846554Y-32153446D02*
G01*
X135846554Y-35646553D01*
X134100000Y-33900000D01*
X135846554Y-32153446D01*
G37*
X135846554Y-32153446D02*
X135846554Y-35646553D01*
X134100000Y-33900000D01*
X135846554Y-32153446D01*
%TO.C,U68*%
G36*
X129796554Y-41696554D02*
G01*
X126303447Y-41696554D01*
X128050000Y-39950000D01*
X129796554Y-41696554D01*
G37*
X129796554Y-41696554D02*
X126303447Y-41696554D01*
X128050000Y-39950000D01*
X129796554Y-41696554D01*
G36*
X129796554Y-41700000D02*
G01*
X126303447Y-41700000D01*
X128050000Y-43446554D01*
X129796554Y-41700000D01*
G37*
X129796554Y-41700000D02*
X126303447Y-41700000D01*
X128050000Y-43446554D01*
X129796554Y-41700000D01*
%TO.C,U67*%
G36*
X129796554Y-33896554D02*
G01*
X126303447Y-33896554D01*
X128050000Y-32150000D01*
X129796554Y-33896554D01*
G37*
X129796554Y-33896554D02*
X126303447Y-33896554D01*
X128050000Y-32150000D01*
X129796554Y-33896554D01*
G36*
X129796554Y-33900000D02*
G01*
X126303447Y-33900000D01*
X128050000Y-35646554D01*
X129796554Y-33900000D01*
G37*
X129796554Y-33900000D02*
X126303447Y-33900000D01*
X128050000Y-35646554D01*
X129796554Y-33900000D01*
%TO.C,U66*%
G36*
X135846554Y-43853446D02*
G01*
X135846554Y-47346553D01*
X134100000Y-45600000D01*
X135846554Y-43853446D01*
G37*
X135846554Y-43853446D02*
X135846554Y-47346553D01*
X134100000Y-45600000D01*
X135846554Y-43853446D01*
%TO.C,U65*%
G36*
X129796554Y-29996554D02*
G01*
X126303447Y-29996554D01*
X128050000Y-28250000D01*
X129796554Y-29996554D01*
G37*
X129796554Y-29996554D02*
X126303447Y-29996554D01*
X128050000Y-28250000D01*
X129796554Y-29996554D01*
G36*
X129796554Y-30000000D02*
G01*
X126303447Y-30000000D01*
X128050000Y-31746554D01*
X129796554Y-30000000D01*
G37*
X129796554Y-30000000D02*
X126303447Y-30000000D01*
X128050000Y-31746554D01*
X129796554Y-30000000D01*
%TO.C,U64*%
G36*
X129796554Y-49496554D02*
G01*
X126303447Y-49496554D01*
X128050000Y-47750000D01*
X129796554Y-49496554D01*
G37*
X129796554Y-49496554D02*
X126303447Y-49496554D01*
X128050000Y-47750000D01*
X129796554Y-49496554D01*
G36*
X129796554Y-49500000D02*
G01*
X126303447Y-49500000D01*
X128050000Y-51246554D01*
X129796554Y-49500000D01*
G37*
X129796554Y-49500000D02*
X126303447Y-49500000D01*
X128050000Y-51246554D01*
X129796554Y-49500000D01*
%TO.C,U63*%
G36*
X127846554Y-31946554D02*
G01*
X124353447Y-31946554D01*
X126100000Y-30200000D01*
X127846554Y-31946554D01*
G37*
X127846554Y-31946554D02*
X124353447Y-31946554D01*
X126100000Y-30200000D01*
X127846554Y-31946554D01*
G36*
X127846554Y-31950000D02*
G01*
X124353447Y-31950000D01*
X126100000Y-33696554D01*
X127846554Y-31950000D01*
G37*
X127846554Y-31950000D02*
X124353447Y-31950000D01*
X126100000Y-33696554D01*
X127846554Y-31950000D01*
%TO.C,U62*%
G36*
X135646554Y-43646554D02*
G01*
X132153447Y-43646554D01*
X133900000Y-41900000D01*
X135646554Y-43646554D01*
G37*
X135646554Y-43646554D02*
X132153447Y-43646554D01*
X133900000Y-41900000D01*
X135646554Y-43646554D01*
G36*
X135646554Y-43650000D02*
G01*
X132153447Y-43650000D01*
X133900000Y-45396554D01*
X135646554Y-43650000D01*
G37*
X135646554Y-43650000D02*
X132153447Y-43650000D01*
X133900000Y-45396554D01*
X135646554Y-43650000D01*
%TO.C,U60*%
G36*
X133696554Y-37796554D02*
G01*
X130203447Y-37796554D01*
X131950000Y-36050000D01*
X133696554Y-37796554D01*
G37*
X133696554Y-37796554D02*
X130203447Y-37796554D01*
X131950000Y-36050000D01*
X133696554Y-37796554D01*
G36*
X133696554Y-37800000D02*
G01*
X130203447Y-37800000D01*
X131950000Y-39546554D01*
X133696554Y-37800000D01*
G37*
X133696554Y-37800000D02*
X130203447Y-37800000D01*
X131950000Y-39546554D01*
X133696554Y-37800000D01*
%TO.C,U58*%
G36*
X127846554Y-39746554D02*
G01*
X124353447Y-39746554D01*
X126100000Y-38000000D01*
X127846554Y-39746554D01*
G37*
X127846554Y-39746554D02*
X124353447Y-39746554D01*
X126100000Y-38000000D01*
X127846554Y-39746554D01*
G36*
X127846554Y-39750000D02*
G01*
X124353447Y-39750000D01*
X126100000Y-41496554D01*
X127846554Y-39750000D01*
G37*
X127846554Y-39750000D02*
X124353447Y-39750000D01*
X126100000Y-41496554D01*
X127846554Y-39750000D01*
%TO.C,U56*%
G36*
X135846554Y-47753446D02*
G01*
X135846554Y-51246553D01*
X134100000Y-49500000D01*
X135846554Y-47753446D01*
G37*
X135846554Y-47753446D02*
X135846554Y-51246553D01*
X134100000Y-49500000D01*
X135846554Y-47753446D01*
%TO.C,U54*%
G36*
X127846554Y-47546554D02*
G01*
X124353447Y-47546554D01*
X126100000Y-45800000D01*
X127846554Y-47546554D01*
G37*
X127846554Y-47546554D02*
X124353447Y-47546554D01*
X126100000Y-45800000D01*
X127846554Y-47546554D01*
G36*
X127846554Y-47550000D02*
G01*
X124353447Y-47550000D01*
X126100000Y-49296554D01*
X127846554Y-47550000D01*
G37*
X127846554Y-47550000D02*
X124353447Y-47550000D01*
X126100000Y-49296554D01*
X127846554Y-47550000D01*
%TO.C,U53*%
G36*
X124153446Y-31746554D02*
G01*
X124153446Y-28253447D01*
X125900000Y-30000000D01*
X124153446Y-31746554D01*
G37*
X124153446Y-31746554D02*
X124153446Y-28253447D01*
X125900000Y-30000000D01*
X124153446Y-31746554D01*
%TO.C,U52*%
G36*
X124353446Y-28053446D02*
G01*
X127846553Y-28053446D01*
X126100000Y-29800000D01*
X124353446Y-28053446D01*
G37*
X124353446Y-28053446D02*
X127846553Y-28053446D01*
X126100000Y-29800000D01*
X124353446Y-28053446D01*
%TO.C,U51*%
G36*
X124153446Y-39546554D02*
G01*
X124153446Y-36053447D01*
X125900000Y-37800000D01*
X124153446Y-39546554D01*
G37*
X124153446Y-39546554D02*
X124153446Y-36053447D01*
X125900000Y-37800000D01*
X124153446Y-39546554D01*
%TO.C,U50*%
G36*
X128253446Y-28053446D02*
G01*
X131746553Y-28053446D01*
X130000000Y-29800000D01*
X128253446Y-28053446D01*
G37*
X128253446Y-28053446D02*
X131746553Y-28053446D01*
X130000000Y-29800000D01*
X128253446Y-28053446D01*
%TO.C,U49*%
G36*
X135846554Y-36053446D02*
G01*
X135846554Y-39546553D01*
X134100000Y-37800000D01*
X135846554Y-36053446D01*
G37*
X135846554Y-36053446D02*
X135846554Y-39546553D01*
X134100000Y-37800000D01*
X135846554Y-36053446D01*
%TO.C,U48*%
G36*
X135646554Y-51446554D02*
G01*
X132153447Y-51446554D01*
X133900000Y-49700000D01*
X135646554Y-51446554D01*
G37*
X135646554Y-51446554D02*
X132153447Y-51446554D01*
X133900000Y-49700000D01*
X135646554Y-51446554D01*
D11*
%TO.C,U38*%
G36*
X87180000Y-34600000D02*
G01*
X83220202Y-34600000D01*
X85200101Y-32620101D01*
X87180000Y-34600000D01*
G37*
X87180000Y-34600000D02*
X83220202Y-34600000D01*
X85200101Y-32620101D01*
X87180000Y-34600000D01*
G36*
X83220202Y-34600000D02*
G01*
X87180000Y-34600000D01*
X85200101Y-36579899D01*
X83220202Y-34600000D01*
G37*
X83220202Y-34600000D02*
X87180000Y-34600000D01*
X85200101Y-36579899D01*
X83220202Y-34600000D01*
%TO.C,U37*%
G36*
X84980000Y-45600000D02*
G01*
X81020202Y-45600000D01*
X83000101Y-43620101D01*
X84980000Y-45600000D01*
G37*
X84980000Y-45600000D02*
X81020202Y-45600000D01*
X83000101Y-43620101D01*
X84980000Y-45600000D01*
G36*
X81020202Y-45600000D02*
G01*
X84980000Y-45600000D01*
X83000101Y-47579899D01*
X81020202Y-45600000D01*
G37*
X81020202Y-45600000D02*
X84980000Y-45600000D01*
X83000101Y-47579899D01*
X81020202Y-45600000D01*
%TO.C,U36*%
G36*
X93780000Y-36800000D02*
G01*
X89820202Y-36800000D01*
X91800101Y-34820101D01*
X93780000Y-36800000D01*
G37*
X93780000Y-36800000D02*
X89820202Y-36800000D01*
X91800101Y-34820101D01*
X93780000Y-36800000D01*
G36*
X89820202Y-36800000D02*
G01*
X93780000Y-36800000D01*
X91800101Y-38779899D01*
X89820202Y-36800000D01*
G37*
X89820202Y-36800000D02*
X93780000Y-36800000D01*
X91800101Y-38779899D01*
X89820202Y-36800000D01*
%TO.C,U35*%
G36*
X91580000Y-43400000D02*
G01*
X87620202Y-43400000D01*
X89600101Y-41420101D01*
X91580000Y-43400000D01*
G37*
X91580000Y-43400000D02*
X87620202Y-43400000D01*
X89600101Y-41420101D01*
X91580000Y-43400000D01*
G36*
X87620202Y-43400000D02*
G01*
X91580000Y-43400000D01*
X89600101Y-45379899D01*
X87620202Y-43400000D01*
G37*
X87620202Y-43400000D02*
X91580000Y-43400000D01*
X89600101Y-45379899D01*
X87620202Y-43400000D01*
%TO.C,U34*%
G36*
X91580000Y-30200000D02*
G01*
X87620202Y-30200000D01*
X89600101Y-28220101D01*
X91580000Y-30200000D01*
G37*
X91580000Y-30200000D02*
X87620202Y-30200000D01*
X89600101Y-28220101D01*
X91580000Y-30200000D01*
G36*
X87620202Y-30200000D02*
G01*
X91580000Y-30200000D01*
X89600101Y-32179899D01*
X87620202Y-30200000D01*
G37*
X87620202Y-30200000D02*
X91580000Y-30200000D01*
X89600101Y-32179899D01*
X87620202Y-30200000D01*
%TO.C,U33*%
G36*
X94000000Y-41420000D02*
G01*
X94000000Y-45379798D01*
X92020101Y-43399899D01*
X94000000Y-41420000D01*
G37*
X94000000Y-41420000D02*
X94000000Y-45379798D01*
X92020101Y-43399899D01*
X94000000Y-41420000D01*
%TO.C,U32*%
G36*
X80800000Y-45380000D02*
G01*
X80800000Y-41420202D01*
X82779899Y-43400101D01*
X80800000Y-45380000D01*
G37*
X80800000Y-45380000D02*
X80800000Y-41420202D01*
X82779899Y-43400101D01*
X80800000Y-45380000D01*
%TO.C,U31*%
G36*
X80800000Y-40980000D02*
G01*
X80800000Y-37020202D01*
X82779899Y-39000101D01*
X80800000Y-40980000D01*
G37*
X80800000Y-40980000D02*
X80800000Y-37020202D01*
X82779899Y-39000101D01*
X80800000Y-40980000D01*
%TO.C,U30*%
G36*
X93780000Y-32400000D02*
G01*
X89820202Y-32400000D01*
X91800101Y-30420101D01*
X93780000Y-32400000D01*
G37*
X93780000Y-32400000D02*
X89820202Y-32400000D01*
X91800101Y-30420101D01*
X93780000Y-32400000D01*
G36*
X89820202Y-32400000D02*
G01*
X93780000Y-32400000D01*
X91800101Y-34379899D01*
X89820202Y-32400000D01*
G37*
X89820202Y-32400000D02*
X93780000Y-32400000D01*
X91800101Y-34379899D01*
X89820202Y-32400000D01*
%TO.C,U29*%
G36*
X84980000Y-50000000D02*
G01*
X81020202Y-50000000D01*
X83000101Y-48020101D01*
X84980000Y-50000000D01*
G37*
X84980000Y-50000000D02*
X81020202Y-50000000D01*
X83000101Y-48020101D01*
X84980000Y-50000000D01*
%TO.C,U28*%
G36*
X93780000Y-41200000D02*
G01*
X89820202Y-41200000D01*
X91800101Y-39220101D01*
X93780000Y-41200000D01*
G37*
X93780000Y-41200000D02*
X89820202Y-41200000D01*
X91800101Y-39220101D01*
X93780000Y-41200000D01*
G36*
X89820202Y-41200000D02*
G01*
X93780000Y-41200000D01*
X91800101Y-43179899D01*
X89820202Y-41200000D01*
G37*
X89820202Y-41200000D02*
X93780000Y-41200000D01*
X91800101Y-43179899D01*
X89820202Y-41200000D01*
%TO.C,U27*%
G36*
X94000000Y-37020000D02*
G01*
X94000000Y-40979798D01*
X92020101Y-38999899D01*
X94000000Y-37020000D01*
G37*
X94000000Y-37020000D02*
X94000000Y-40979798D01*
X92020101Y-38999899D01*
X94000000Y-37020000D01*
%TO.C,U26*%
G36*
X84980000Y-32400000D02*
G01*
X81020202Y-32400000D01*
X83000101Y-30420101D01*
X84980000Y-32400000D01*
G37*
X84980000Y-32400000D02*
X81020202Y-32400000D01*
X83000101Y-30420101D01*
X84980000Y-32400000D01*
G36*
X81020202Y-32400000D02*
G01*
X84980000Y-32400000D01*
X83000101Y-34379899D01*
X81020202Y-32400000D01*
G37*
X81020202Y-32400000D02*
X84980000Y-32400000D01*
X83000101Y-34379899D01*
X81020202Y-32400000D01*
%TO.C,U25*%
G36*
X80800000Y-32180000D02*
G01*
X80800000Y-28220202D01*
X82779899Y-30200101D01*
X80800000Y-32180000D01*
G37*
X80800000Y-32180000D02*
X80800000Y-28220202D01*
X82779899Y-30200101D01*
X80800000Y-32180000D01*
%TO.C,U24*%
G36*
X91580000Y-39000000D02*
G01*
X87620202Y-39000000D01*
X89600101Y-37020101D01*
X91580000Y-39000000D01*
G37*
X91580000Y-39000000D02*
X87620202Y-39000000D01*
X89600101Y-37020101D01*
X91580000Y-39000000D01*
G36*
X87620202Y-39000000D02*
G01*
X91580000Y-39000000D01*
X89600101Y-40979899D01*
X87620202Y-39000000D01*
G37*
X87620202Y-39000000D02*
X91580000Y-39000000D01*
X89600101Y-40979899D01*
X87620202Y-39000000D01*
%TO.C,U23*%
G36*
X93780000Y-50000000D02*
G01*
X89820202Y-50000000D01*
X91800101Y-48020101D01*
X93780000Y-50000000D01*
G37*
X93780000Y-50000000D02*
X89820202Y-50000000D01*
X91800101Y-48020101D01*
X93780000Y-50000000D01*
%TO.C,U22*%
G36*
X89380000Y-32400000D02*
G01*
X85420202Y-32400000D01*
X87400101Y-30420101D01*
X89380000Y-32400000D01*
G37*
X89380000Y-32400000D02*
X85420202Y-32400000D01*
X87400101Y-30420101D01*
X89380000Y-32400000D01*
G36*
X85420202Y-32400000D02*
G01*
X89380000Y-32400000D01*
X87400101Y-34379899D01*
X85420202Y-32400000D01*
G37*
X85420202Y-32400000D02*
X89380000Y-32400000D01*
X87400101Y-34379899D01*
X85420202Y-32400000D01*
%TO.C,U21*%
G36*
X87180000Y-39000000D02*
G01*
X83220202Y-39000000D01*
X85200101Y-37020101D01*
X87180000Y-39000000D01*
G37*
X87180000Y-39000000D02*
X83220202Y-39000000D01*
X85200101Y-37020101D01*
X87180000Y-39000000D01*
G36*
X83220202Y-39000000D02*
G01*
X87180000Y-39000000D01*
X85200101Y-40979899D01*
X83220202Y-39000000D01*
G37*
X83220202Y-39000000D02*
X87180000Y-39000000D01*
X85200101Y-40979899D01*
X83220202Y-39000000D01*
%TO.C,U20*%
G36*
X91580000Y-47800000D02*
G01*
X87620202Y-47800000D01*
X89600101Y-45820101D01*
X91580000Y-47800000D01*
G37*
X91580000Y-47800000D02*
X87620202Y-47800000D01*
X89600101Y-45820101D01*
X91580000Y-47800000D01*
G36*
X87620202Y-47800000D02*
G01*
X91580000Y-47800000D01*
X89600101Y-49779899D01*
X87620202Y-47800000D01*
G37*
X87620202Y-47800000D02*
X91580000Y-47800000D01*
X89600101Y-49779899D01*
X87620202Y-47800000D01*
%TO.C,U19*%
G36*
X89380000Y-41200000D02*
G01*
X85420202Y-41200000D01*
X87400101Y-39220101D01*
X89380000Y-41200000D01*
G37*
X89380000Y-41200000D02*
X85420202Y-41200000D01*
X87400101Y-39220101D01*
X89380000Y-41200000D01*
G36*
X85420202Y-41200000D02*
G01*
X89380000Y-41200000D01*
X87400101Y-43179899D01*
X85420202Y-41200000D01*
G37*
X85420202Y-41200000D02*
X89380000Y-41200000D01*
X87400101Y-43179899D01*
X85420202Y-41200000D01*
%TO.C,U18*%
G36*
X93780000Y-45600000D02*
G01*
X89820202Y-45600000D01*
X91800101Y-43620101D01*
X93780000Y-45600000D01*
G37*
X93780000Y-45600000D02*
X89820202Y-45600000D01*
X91800101Y-43620101D01*
X93780000Y-45600000D01*
G36*
X89820202Y-45600000D02*
G01*
X93780000Y-45600000D01*
X91800101Y-47579899D01*
X89820202Y-45600000D01*
G37*
X89820202Y-45600000D02*
X93780000Y-45600000D01*
X91800101Y-47579899D01*
X89820202Y-45600000D01*
%TO.C,U17*%
G36*
X94000000Y-45820000D02*
G01*
X94000000Y-49779798D01*
X92020101Y-47799899D01*
X94000000Y-45820000D01*
G37*
X94000000Y-45820000D02*
X94000000Y-49779798D01*
X92020101Y-47799899D01*
X94000000Y-45820000D01*
%TO.C,U16*%
G36*
X87180000Y-47800000D02*
G01*
X83220202Y-47800000D01*
X85200101Y-45820101D01*
X87180000Y-47800000D01*
G37*
X87180000Y-47800000D02*
X83220202Y-47800000D01*
X85200101Y-45820101D01*
X87180000Y-47800000D01*
G36*
X83220202Y-47800000D02*
G01*
X87180000Y-47800000D01*
X85200101Y-49779899D01*
X83220202Y-47800000D01*
G37*
X83220202Y-47800000D02*
X87180000Y-47800000D01*
X85200101Y-49779899D01*
X83220202Y-47800000D01*
%TO.C,U15*%
G36*
X89380000Y-45600000D02*
G01*
X85420202Y-45600000D01*
X87400101Y-43620101D01*
X89380000Y-45600000D01*
G37*
X89380000Y-45600000D02*
X85420202Y-45600000D01*
X87400101Y-43620101D01*
X89380000Y-45600000D01*
G36*
X85420202Y-45600000D02*
G01*
X89380000Y-45600000D01*
X87400101Y-47579899D01*
X85420202Y-45600000D01*
G37*
X85420202Y-45600000D02*
X89380000Y-45600000D01*
X87400101Y-47579899D01*
X85420202Y-45600000D01*
%TO.C,U14*%
G36*
X84980000Y-36800000D02*
G01*
X81020202Y-36800000D01*
X83000101Y-34820101D01*
X84980000Y-36800000D01*
G37*
X84980000Y-36800000D02*
X81020202Y-36800000D01*
X83000101Y-34820101D01*
X84980000Y-36800000D01*
G36*
X81020202Y-36800000D02*
G01*
X84980000Y-36800000D01*
X83000101Y-38779899D01*
X81020202Y-36800000D01*
G37*
X81020202Y-36800000D02*
X84980000Y-36800000D01*
X83000101Y-38779899D01*
X81020202Y-36800000D01*
%TO.C,U13*%
G36*
X81020000Y-28000000D02*
G01*
X84979798Y-28000000D01*
X82999899Y-29979899D01*
X81020000Y-28000000D01*
G37*
X81020000Y-28000000D02*
X84979798Y-28000000D01*
X82999899Y-29979899D01*
X81020000Y-28000000D01*
%TO.C,U12*%
G36*
X89380000Y-36800000D02*
G01*
X85420202Y-36800000D01*
X87400101Y-34820101D01*
X89380000Y-36800000D01*
G37*
X89380000Y-36800000D02*
X85420202Y-36800000D01*
X87400101Y-34820101D01*
X89380000Y-36800000D01*
G36*
X85420202Y-36800000D02*
G01*
X89380000Y-36800000D01*
X87400101Y-38779899D01*
X85420202Y-36800000D01*
G37*
X85420202Y-36800000D02*
X89380000Y-36800000D01*
X87400101Y-38779899D01*
X85420202Y-36800000D01*
%TO.C,U11*%
G36*
X94000000Y-32620000D02*
G01*
X94000000Y-36579798D01*
X92020101Y-34599899D01*
X94000000Y-32620000D01*
G37*
X94000000Y-32620000D02*
X94000000Y-36579798D01*
X92020101Y-34599899D01*
X94000000Y-32620000D01*
%TO.C,U10*%
G36*
X94000000Y-28220000D02*
G01*
X94000000Y-32179798D01*
X92020101Y-30199899D01*
X94000000Y-28220000D01*
G37*
X94000000Y-28220000D02*
X94000000Y-32179798D01*
X92020101Y-30199899D01*
X94000000Y-28220000D01*
%TO.C,U9*%
G36*
X89820000Y-28000000D02*
G01*
X93779798Y-28000000D01*
X91799899Y-29979899D01*
X89820000Y-28000000D01*
G37*
X89820000Y-28000000D02*
X93779798Y-28000000D01*
X91799899Y-29979899D01*
X89820000Y-28000000D01*
%TO.C,U8*%
G36*
X80800000Y-49780000D02*
G01*
X80800000Y-45820202D01*
X82779899Y-47800101D01*
X80800000Y-49780000D01*
G37*
X80800000Y-49780000D02*
X80800000Y-45820202D01*
X82779899Y-47800101D01*
X80800000Y-49780000D01*
%TO.C,U7*%
G36*
X89380000Y-50000000D02*
G01*
X85420202Y-50000000D01*
X87400101Y-48020101D01*
X89380000Y-50000000D01*
G37*
X89380000Y-50000000D02*
X85420202Y-50000000D01*
X87400101Y-48020101D01*
X89380000Y-50000000D01*
%TO.C,U6*%
G36*
X80800000Y-36580000D02*
G01*
X80800000Y-32620202D01*
X82779899Y-34600101D01*
X80800000Y-36580000D01*
G37*
X80800000Y-36580000D02*
X80800000Y-32620202D01*
X82779899Y-34600101D01*
X80800000Y-36580000D01*
%TO.C,U5*%
G36*
X91580000Y-34600000D02*
G01*
X87620202Y-34600000D01*
X89600101Y-32620101D01*
X91580000Y-34600000D01*
G37*
X91580000Y-34600000D02*
X87620202Y-34600000D01*
X89600101Y-32620101D01*
X91580000Y-34600000D01*
G36*
X87620202Y-34600000D02*
G01*
X91580000Y-34600000D01*
X89600101Y-36579899D01*
X87620202Y-34600000D01*
G37*
X87620202Y-34600000D02*
X91580000Y-34600000D01*
X89600101Y-36579899D01*
X87620202Y-34600000D01*
%TO.C,U4*%
G36*
X84980000Y-41200000D02*
G01*
X81020202Y-41200000D01*
X83000101Y-39220101D01*
X84980000Y-41200000D01*
G37*
X84980000Y-41200000D02*
X81020202Y-41200000D01*
X83000101Y-39220101D01*
X84980000Y-41200000D01*
G36*
X81020202Y-41200000D02*
G01*
X84980000Y-41200000D01*
X83000101Y-43179899D01*
X81020202Y-41200000D01*
G37*
X81020202Y-41200000D02*
X84980000Y-41200000D01*
X83000101Y-43179899D01*
X81020202Y-41200000D01*
%TO.C,U3*%
G36*
X87180000Y-30200000D02*
G01*
X83220202Y-30200000D01*
X85200101Y-28220101D01*
X87180000Y-30200000D01*
G37*
X87180000Y-30200000D02*
X83220202Y-30200000D01*
X85200101Y-28220101D01*
X87180000Y-30200000D01*
G36*
X83220202Y-30200000D02*
G01*
X87180000Y-30200000D01*
X85200101Y-32179899D01*
X83220202Y-30200000D01*
G37*
X83220202Y-30200000D02*
X87180000Y-30200000D01*
X85200101Y-32179899D01*
X83220202Y-30200000D01*
%TO.C,U2*%
G36*
X87180000Y-43400000D02*
G01*
X83220202Y-43400000D01*
X85200101Y-41420101D01*
X87180000Y-43400000D01*
G37*
X87180000Y-43400000D02*
X83220202Y-43400000D01*
X85200101Y-41420101D01*
X87180000Y-43400000D01*
G36*
X83220202Y-43400000D02*
G01*
X87180000Y-43400000D01*
X85200101Y-45379899D01*
X83220202Y-43400000D01*
G37*
X83220202Y-43400000D02*
X87180000Y-43400000D01*
X85200101Y-45379899D01*
X83220202Y-43400000D01*
%TO.C,U1*%
G36*
X85420000Y-28000000D02*
G01*
X89379798Y-28000000D01*
X87399899Y-29979899D01*
X85420000Y-28000000D01*
G37*
X85420000Y-28000000D02*
X89379798Y-28000000D01*
X87399899Y-29979899D01*
X85420000Y-28000000D01*
%TD*%
D12*
%TO.P,J9,7*%
%TO.N,Net-(J9-Pad7)*%
X145316780Y-48223692D03*
%TO.P,J9,6*%
%TO.N,Net-(J9-Pad6)*%
X145316780Y-45683692D03*
%TO.P,J9,5*%
%TO.N,Net-(J9-Pad5)*%
X145316780Y-43143692D03*
%TO.P,J9,4*%
%TO.N,Net-(J9-Pad4)*%
X145316780Y-40603692D03*
%TO.P,J9,3*%
%TO.N,Net-(J9-Pad3)*%
X145316780Y-38063692D03*
%TO.P,J9,2*%
%TO.N,Net-(J9-Pad2)*%
X145316780Y-35523692D03*
D13*
%TO.P,J9,1*%
%TO.N,Net-(J9-Pad1)*%
X145316780Y-32983692D03*
%TD*%
%TO.P,J8,1*%
%TO.N,GND*%
X145031883Y-22233111D03*
%TD*%
D12*
%TO.P,J7,3*%
%TO.N,Net-(J7-Pad3)*%
X121130000Y-22500000D03*
%TO.P,J7,2*%
%TO.N,Net-(J7-Pad2)*%
X118590000Y-22500000D03*
D13*
%TO.P,J7,1*%
%TO.N,Net-(J7-Pad1)*%
X116050000Y-22500000D03*
%TD*%
D12*
%TO.P,J6,6*%
%TO.N,Net-(J6-Pad6)*%
X104000000Y-48100000D03*
%TO.P,J6,5*%
%TO.N,Net-(J6-Pad5)*%
X104000000Y-45560000D03*
%TO.P,J6,4*%
%TO.N,Net-(J6-Pad4)*%
X104000000Y-43020000D03*
%TO.P,J6,3*%
%TO.N,Net-(J6-Pad3)*%
X104000000Y-40480000D03*
%TO.P,J6,2*%
%TO.N,Net-(J6-Pad2)*%
X104000000Y-37940000D03*
D13*
%TO.P,J6,1*%
%TO.N,Net-(J6-Pad1)*%
X104000000Y-35400000D03*
%TD*%
%TO.P,J5,1*%
%TO.N,GND*%
X103700000Y-21600000D03*
%TD*%
D12*
%TO.P,J4,4*%
%TO.N,Net-(J4-Pad4)*%
X161738408Y-22033113D03*
%TO.P,J4,3*%
%TO.N,Net-(J4-Pad3)*%
X159198408Y-22033113D03*
%TO.P,J4,2*%
%TO.N,Net-(J4-Pad2)*%
X156658408Y-22033113D03*
D13*
%TO.P,J4,1*%
%TO.N,Net-(J4-Pad1)*%
X154118408Y-22033113D03*
%TD*%
%TO.P,J3,1*%
%TO.N,GND*%
X72100000Y-21300000D03*
%TD*%
D12*
%TO.P,J2,5*%
%TO.N,Net-(J2-Pad5)*%
X71900000Y-47660000D03*
%TO.P,J2,4*%
%TO.N,Net-(J2-Pad4)*%
X71900000Y-45120000D03*
%TO.P,J2,3*%
%TO.N,Net-(J2-Pad3)*%
X71900000Y-42580000D03*
%TO.P,J2,2*%
%TO.N,Net-(J2-Pad2)*%
X71900000Y-40040000D03*
D13*
%TO.P,J2,1*%
%TO.N,Net-(J2-Pad1)*%
X71900000Y-37500000D03*
%TD*%
D12*
%TO.P,J1,3*%
%TO.N,Net-(J1-Pad3)*%
X84820000Y-21300000D03*
%TO.P,J1,2*%
%TO.N,Net-(J1-Pad2)*%
X87360000Y-21300000D03*
D13*
%TO.P,J1,1*%
%TO.N,Net-(J1-Pad1)*%
X89900000Y-21300000D03*
%TD*%
D14*
%TO.N,*%
X92400000Y-30200000D03*
X91200000Y-30200000D03*
X88000000Y-30200000D03*
X86800000Y-30200000D03*
X83600000Y-30200000D03*
X82400000Y-30200000D03*
X82400000Y-34600000D03*
X83600000Y-34600000D03*
X86800000Y-34600000D03*
X88000000Y-34600000D03*
X91200000Y-34600000D03*
X92400000Y-34600000D03*
X92400000Y-39000000D03*
X91200000Y-39000000D03*
X88000000Y-39000000D03*
X86800000Y-39000000D03*
X83600000Y-39000000D03*
X82400000Y-39000000D03*
X92400000Y-43400000D03*
X91200000Y-43400000D03*
X88000000Y-43400000D03*
X86800000Y-43400000D03*
X83600000Y-43400000D03*
X82400000Y-43400000D03*
X82400000Y-47800000D03*
X83600000Y-47800000D03*
X86800000Y-47800000D03*
X88000000Y-47800000D03*
X91200000Y-47800000D03*
X92400000Y-47800000D03*
X125450000Y-30000000D03*
X126750000Y-30000000D03*
X130650000Y-30000000D03*
X129350000Y-30000000D03*
X133250000Y-30000000D03*
X134550000Y-30000000D03*
X125450000Y-33900000D03*
X126750000Y-33900000D03*
X129350000Y-33900000D03*
X130650000Y-33900000D03*
X133250000Y-33900000D03*
X134550000Y-33900000D03*
X125450000Y-37800000D03*
X126750000Y-37800000D03*
X129350000Y-37800000D03*
X130650000Y-37800000D03*
X133250000Y-37800000D03*
X134550000Y-37800000D03*
X125450000Y-41700000D03*
X126750000Y-41700000D03*
X129350000Y-41700000D03*
X130650000Y-41700000D03*
X133250000Y-41700000D03*
X134550000Y-41700000D03*
X134550000Y-45600000D03*
X133250000Y-45600000D03*
X130650000Y-45600000D03*
X129300000Y-45600000D03*
X126750000Y-45600000D03*
X125450000Y-45600000D03*
X125450000Y-49500000D03*
X126750000Y-49500000D03*
X129350000Y-49500000D03*
X130650000Y-49500000D03*
X133250000Y-49500000D03*
X134550000Y-49500000D03*
X165131682Y-29599704D03*
X166465002Y-29599704D03*
X168498315Y-29599704D03*
X169798302Y-29599704D03*
X171798282Y-29599704D03*
X173131602Y-29599704D03*
X175098249Y-29599704D03*
X176498235Y-29599704D03*
X176464902Y-32933004D03*
X175131582Y-32933004D03*
X173131602Y-32933004D03*
X171764949Y-32933004D03*
X169798302Y-32933004D03*
X168464982Y-32933004D03*
X166465002Y-32933004D03*
X165131682Y-32933004D03*
X165131682Y-36266304D03*
X166465002Y-36266304D03*
X168464982Y-36266304D03*
X169798302Y-36266304D03*
X171798282Y-36266304D03*
X173131602Y-36266304D03*
X175131582Y-36266304D03*
X176464902Y-36266304D03*
X176464902Y-39599604D03*
X175131582Y-39599604D03*
X173131602Y-39599604D03*
X171764949Y-39599604D03*
X169798302Y-39599604D03*
X168431649Y-39599604D03*
X171798282Y-42932904D03*
X173131602Y-42932904D03*
X175131582Y-42932904D03*
X176431569Y-42932904D03*
X165131682Y-39599604D03*
X166465002Y-39599604D03*
X165131682Y-42932904D03*
X166465002Y-42932904D03*
X168464982Y-42932904D03*
X169798302Y-42932904D03*
X165098349Y-46266204D03*
X166465002Y-46266204D03*
X168431649Y-46266204D03*
X169798302Y-46266204D03*
X171798282Y-46266204D03*
X173131602Y-46266204D03*
X175164915Y-46266204D03*
X176464902Y-46266204D03*
X176464902Y-49599504D03*
X175131582Y-49599504D03*
X173131602Y-49599504D03*
X171798282Y-49599504D03*
X169798302Y-49599504D03*
X165165015Y-49599504D03*
X166465002Y-49599504D03*
X168464982Y-49599504D03*
%TO.N,GND*%
X179500000Y-52000000D03*
X179500000Y-44500000D03*
X179500000Y-37000000D03*
X179500000Y-27000000D03*
X179500000Y-20500000D03*
X178500000Y-19500000D03*
X169000000Y-19500000D03*
X162500000Y-19500000D03*
X154000000Y-19500000D03*
X144000000Y-19500000D03*
X143000000Y-20500000D03*
X143000000Y-27000000D03*
X143000000Y-33000000D03*
X143000000Y-39000000D03*
X143000000Y-45500000D03*
X143000000Y-51000000D03*
X144500000Y-52500000D03*
X153500000Y-52500000D03*
X163000000Y-52500000D03*
X171500000Y-52500000D03*
X95300000Y-19400000D03*
X89800000Y-19300000D03*
X82300000Y-19300000D03*
X75800000Y-19300000D03*
X71100000Y-19300000D03*
X69600000Y-22900000D03*
X69600000Y-31600000D03*
X69600000Y-38000000D03*
X69600000Y-44400000D03*
X69600000Y-50800000D03*
X77100000Y-50800000D03*
X83800000Y-50900000D03*
X89000000Y-50900000D03*
X93500000Y-50900000D03*
X95100000Y-48200000D03*
X95100000Y-42100000D03*
X95200000Y-36400000D03*
X95200000Y-32400000D03*
X95200000Y-26000000D03*
X101465652Y-52499475D03*
X109832235Y-52500000D03*
X119898801Y-52500000D03*
X129432039Y-52500000D03*
X135750000Y-52500000D03*
X136500000Y-51750000D03*
X136500000Y-45250000D03*
X136500000Y-40000000D03*
X136500000Y-33000000D03*
X136500000Y-25000000D03*
X136500000Y-20750000D03*
X135250000Y-19500000D03*
X128750000Y-19500000D03*
X122750000Y-19500000D03*
X116000000Y-19500000D03*
X107000000Y-19500000D03*
X102250000Y-19500000D03*
X101250000Y-20500000D03*
X101250000Y-24750000D03*
X101250000Y-29500000D03*
X101250000Y-35750000D03*
X101250000Y-42250000D03*
%TD*%
D15*
%TO.N,*%
X91800000Y-30000000D02*
X91800000Y-30400000D01*
X87400000Y-30000000D02*
X87400000Y-30400000D01*
X83000000Y-30000000D02*
X83000000Y-30400000D01*
X83000000Y-34400000D02*
X83000000Y-34800000D01*
X87400000Y-34400000D02*
X87400000Y-34800000D01*
X91800000Y-34400000D02*
X91800000Y-34800000D01*
X83000000Y-38800000D02*
X83000000Y-39200000D01*
X87400000Y-38800000D02*
X87400000Y-39200000D01*
X91800000Y-38800000D02*
X91800000Y-39200000D01*
X91800000Y-43200000D02*
X91800000Y-43600000D01*
X91800000Y-47600000D02*
X91800000Y-48000000D01*
X87400000Y-47600000D02*
X87400000Y-48000000D01*
X83000000Y-47600000D02*
X83000000Y-48000000D01*
X83000000Y-43200000D02*
X83000000Y-43600000D01*
X87400000Y-43200000D02*
X87400000Y-43600000D01*
X126100000Y-29800000D02*
X126100000Y-30250000D01*
X126100000Y-29800000D02*
X126100000Y-29750000D01*
X130000000Y-29700000D02*
X130000000Y-30250000D01*
X133900000Y-29750000D02*
X133900000Y-30250000D01*
X126100000Y-34200000D02*
X126100000Y-33600000D01*
X126100000Y-37450000D02*
X126100000Y-38100000D01*
X130000000Y-33600000D02*
X130000000Y-34200000D01*
X133900000Y-33550000D02*
X133900000Y-34250000D01*
X130000000Y-37500000D02*
X130000000Y-38100000D01*
X133900000Y-37450000D02*
X133900000Y-38100000D01*
X133900000Y-41350000D02*
X133900000Y-42000000D01*
X130000000Y-41350000D02*
X130000000Y-42000000D01*
X126100000Y-41350000D02*
X126100000Y-42050000D01*
X126100000Y-45150000D02*
X126100000Y-45950000D01*
X130000000Y-45250000D02*
X130000000Y-45950000D01*
X133900000Y-45250000D02*
X133900000Y-46000000D01*
X126100000Y-49100000D02*
X126100000Y-49850000D01*
X130000000Y-49150000D02*
X130000000Y-49850000D01*
X133900000Y-49150000D02*
X133900000Y-49850000D01*
X175798242Y-29299707D02*
X175798242Y-29899701D01*
X172464942Y-29299707D02*
X172464942Y-29866368D01*
X169131642Y-29266374D02*
X169131642Y-29933034D01*
X165798342Y-29299707D02*
X165798342Y-29899701D01*
X175798242Y-32566341D02*
X175798242Y-33266334D01*
X172464942Y-32533008D02*
X172464942Y-33299667D01*
X169131642Y-32566341D02*
X169131642Y-33299667D01*
X165798342Y-32533008D02*
X165798342Y-33366333D01*
X165798342Y-35866308D02*
X165798342Y-36666300D01*
X169131642Y-35799642D02*
X169131642Y-36732966D01*
X172464942Y-35832975D02*
X172464942Y-36632967D01*
X175798242Y-35866308D02*
X175798242Y-36599634D01*
X165798342Y-39966267D02*
X165798342Y-39132942D01*
X169131642Y-39166275D02*
X169131642Y-39966267D01*
X172464942Y-39199608D02*
X172464942Y-39966267D01*
X175798242Y-39166275D02*
X175798242Y-39966267D01*
X165798342Y-42532908D02*
X165798342Y-43299567D01*
X169131642Y-42532908D02*
X169131642Y-43299567D01*
X172464942Y-42499575D02*
X172464942Y-43332900D01*
X175798242Y-42499575D02*
X175798242Y-43332900D01*
X175798242Y-45832875D02*
X175798242Y-46632867D01*
X172464942Y-45866208D02*
X172464942Y-46666200D01*
X169131642Y-45866208D02*
X169131642Y-46632867D01*
X165798342Y-45832875D02*
X165798342Y-46699533D01*
X165798342Y-49166175D02*
X165798342Y-49999500D01*
X169131642Y-49166175D02*
X169131642Y-49999500D01*
X172464942Y-49199508D02*
X172464942Y-49966167D01*
X175798242Y-49199508D02*
X175798242Y-49966167D01*
%TO.N,GND*%
X179500000Y-52000000D02*
X179500000Y-44500000D01*
X179500000Y-44500000D02*
X179500000Y-37000000D01*
X179500000Y-27000000D02*
X179500000Y-37000000D01*
X179500000Y-20500000D02*
X179500000Y-27000000D01*
X179500000Y-20500000D02*
X178500000Y-19500000D01*
X178500000Y-19500000D02*
X169000000Y-19500000D01*
X169000000Y-19500000D02*
X162500000Y-19500000D01*
X154000000Y-19500000D02*
X162500000Y-19500000D01*
X144000000Y-19500000D02*
X154000000Y-19500000D01*
X143000000Y-20500000D02*
X144000000Y-19500000D01*
X143000000Y-20500000D02*
X143000000Y-27000000D01*
X143000000Y-27000000D02*
X143000000Y-33000000D01*
X143000000Y-39000000D02*
X143000000Y-33000000D01*
X143000000Y-45500000D02*
X143000000Y-39000000D01*
X143000000Y-51000000D02*
X143000000Y-45500000D01*
X143000000Y-51000000D02*
X144500000Y-52500000D01*
X144500000Y-52500000D02*
X153500000Y-52500000D01*
X153500000Y-52500000D02*
X163000000Y-52500000D01*
X163000000Y-52500000D02*
X171500000Y-52500000D01*
X179000000Y-52500000D02*
X179500000Y-52000000D01*
X171500000Y-52500000D02*
X179000000Y-52500000D01*
%TO.N,Net-(J1-Pad3)*%
X84820000Y-21300000D02*
X83200000Y-22920000D01*
X83200000Y-22920000D02*
X83200000Y-28000000D01*
%TO.N,Net-(J1-Pad2)*%
X87360000Y-21300000D02*
X87360000Y-28060000D01*
%TO.N,Net-(J1-Pad1)*%
X89900000Y-21300000D02*
X89900000Y-26200000D01*
X89900000Y-26200000D02*
X91700000Y-28000000D01*
%TO.N,Net-(J2-Pad5)*%
X71900000Y-47660000D02*
X80840000Y-47660000D01*
%TO.N,Net-(J2-Pad4)*%
X71900000Y-45120000D02*
X79180000Y-45120000D01*
X79180000Y-45120000D02*
X80900000Y-43400000D01*
%TO.N,Net-(J2-Pad3)*%
X71900000Y-42580000D02*
X77220000Y-42580000D01*
X77220000Y-42580000D02*
X80800000Y-39000000D01*
%TO.N,Net-(J2-Pad2)*%
X78960000Y-36340000D02*
X79260000Y-36340000D01*
X79260000Y-36340000D02*
X80900000Y-34700000D01*
X75260000Y-40040000D02*
X78960000Y-36340000D01*
X71900000Y-40040000D02*
X75260000Y-40040000D01*
%TO.N,Net-(J2-Pad1)*%
X77400000Y-33800000D02*
X80900000Y-30300000D01*
X73700000Y-37500000D02*
X77400000Y-33800000D01*
X71900000Y-37500000D02*
X73700000Y-37500000D01*
%TO.N,GND*%
X83700000Y-50800000D02*
X83800000Y-50900000D01*
X77100000Y-50800000D02*
X83700000Y-50800000D01*
X83800000Y-50900000D02*
X89000000Y-50900000D01*
X93500000Y-50900000D02*
X89000000Y-50900000D01*
X93500000Y-50900000D02*
X95100000Y-50900000D01*
X95100000Y-50900000D02*
X95100000Y-48200000D01*
X95100000Y-48200000D02*
X95100000Y-42100000D01*
X95100000Y-36500000D02*
X95200000Y-36400000D01*
X95100000Y-42100000D02*
X95100000Y-36500000D01*
X95200000Y-36400000D02*
X95200000Y-32400000D01*
X95200000Y-32400000D02*
X95200000Y-26000000D01*
X95200000Y-19500000D02*
X95300000Y-19400000D01*
X95200000Y-26000000D02*
X95200000Y-19500000D01*
X95200000Y-19300000D02*
X95300000Y-19400000D01*
X89800000Y-19300000D02*
X95200000Y-19300000D01*
X89800000Y-19300000D02*
X82300000Y-19300000D01*
X82300000Y-19300000D02*
X75800000Y-19300000D01*
X71100000Y-19300000D02*
X75800000Y-19300000D01*
X69600000Y-22900000D02*
X69600000Y-20000000D01*
X70300000Y-19300000D02*
X71100000Y-19300000D01*
X69600000Y-20000000D02*
X70300000Y-19300000D01*
X69600000Y-22900000D02*
X69600000Y-31600000D01*
X69600000Y-38000000D02*
X69600000Y-31600000D01*
X69600000Y-50800000D02*
X69600000Y-44400000D01*
X69600000Y-38000000D02*
X69600000Y-44400000D01*
X69600000Y-50800000D02*
X77100000Y-50800000D01*
X102250000Y-19500000D02*
X101250000Y-20500000D01*
X101250000Y-20500000D02*
X101250000Y-24750000D01*
X101250000Y-24750000D02*
X101250000Y-29500000D01*
X101250000Y-29500000D02*
X101250000Y-35750000D01*
X101250000Y-35750000D02*
X101250000Y-42250000D01*
X101250000Y-52283823D02*
X101465652Y-52499475D01*
X101250000Y-42250000D02*
X101250000Y-52283823D01*
X109765569Y-52499475D02*
X109832235Y-52566141D01*
X101465652Y-52499475D02*
X109765569Y-52499475D01*
X109832235Y-52500000D02*
X119898801Y-52500000D01*
X129332040Y-52566141D02*
X129432039Y-52666140D01*
X119898801Y-52500000D02*
X129332040Y-52500000D01*
X129432039Y-52500000D02*
X135331980Y-52500000D01*
X136265304Y-51732816D02*
X136465302Y-51732816D01*
X136500000Y-51716602D02*
X136500000Y-45250000D01*
X136465302Y-40034698D02*
X136500000Y-40000000D01*
X136500000Y-45250000D02*
X136500000Y-40018484D01*
X136500000Y-40000000D02*
X136500000Y-33000000D01*
X136500000Y-33000000D02*
X136500000Y-25000000D01*
X136500000Y-25000000D02*
X136500000Y-20750000D01*
X136500000Y-20750000D02*
X135250000Y-19500000D01*
X135250000Y-19500000D02*
X128750000Y-19500000D01*
X128750000Y-19500000D02*
X122750000Y-19500000D01*
X122750000Y-19500000D02*
X116000000Y-19500000D01*
X116000000Y-19500000D02*
X107000000Y-19500000D01*
X107000000Y-19500000D02*
X102250000Y-19500000D01*
X135331980Y-52500000D02*
X135750000Y-52500000D01*
X135750000Y-52500000D02*
X136500000Y-51750000D01*
%TO.N,Net-(J4-Pad4)*%
X161738408Y-22033113D02*
X169864968Y-22033113D01*
X169864968Y-22033113D02*
X175931574Y-28099719D01*
%TO.N,Net-(J4-Pad3)*%
X160238909Y-23073614D02*
X167438837Y-23073614D01*
X159198408Y-22033113D02*
X160238909Y-23073614D01*
X167438837Y-23073614D02*
X167505503Y-23073614D01*
X167505503Y-23073614D02*
X172431609Y-27999720D01*
%TO.N,Net-(J4-Pad2)*%
X156658408Y-22033113D02*
X158325058Y-23699763D01*
X158325058Y-23699763D02*
X164798352Y-23699763D01*
X164798352Y-23699763D02*
X169131642Y-28033053D01*
%TO.N,Net-(J4-Pad1)*%
X154118408Y-22033113D02*
X156518384Y-24433089D01*
X156518384Y-24433089D02*
X162298377Y-24433089D01*
X162298377Y-24433089D02*
X165931674Y-28066386D01*
%TO.N,Net-(J6-Pad6)*%
X104000000Y-48100000D02*
X123350000Y-48100000D01*
X123350000Y-48100000D02*
X124500000Y-49250000D01*
%TO.N,Net-(J6-Pad5)*%
X104000000Y-45560000D02*
X124440000Y-45560000D01*
%TO.N,Net-(J6-Pad4)*%
X104000000Y-43020000D02*
X123080000Y-43020000D01*
X123080000Y-43020000D02*
X124400000Y-41700000D01*
%TO.N,Net-(J6-Pad3)*%
X104000000Y-40480000D02*
X121470000Y-40480000D01*
X121470000Y-40480000D02*
X124400000Y-37550000D01*
%TO.N,Net-(J6-Pad2)*%
X104000000Y-37940000D02*
X120260000Y-37940000D01*
X120260000Y-37940000D02*
X124450000Y-33750000D01*
%TO.N,Net-(J6-Pad1)*%
X104000000Y-35400000D02*
X119200000Y-35400000D01*
X119200000Y-35400000D02*
X124450000Y-30150000D01*
%TO.N,Net-(J7-Pad3)*%
X121130000Y-22500000D02*
X128100000Y-22500000D01*
X128100000Y-22500000D02*
X134000000Y-28400000D01*
%TO.N,Net-(J7-Pad2)*%
X119630501Y-23540501D02*
X125190501Y-23540501D01*
X118590000Y-22500000D02*
X119630501Y-23540501D01*
X125190501Y-23540501D02*
X130100000Y-28450000D01*
%TO.N,Net-(J7-Pad1)*%
X116050000Y-22500000D02*
X118300000Y-24750000D01*
X118300000Y-24750000D02*
X125900000Y-24750000D01*
X125900000Y-24750000D02*
X126300000Y-25150000D01*
X126300000Y-25150000D02*
X126300000Y-28250000D01*
%TO.N,Net-(J9-Pad7)*%
X145316780Y-48223692D02*
X162989211Y-48223692D01*
X162989211Y-48223692D02*
X164365023Y-49599504D01*
%TO.N,Net-(J9-Pad6)*%
X145316780Y-45683692D02*
X164082508Y-45683692D01*
X164082508Y-45683692D02*
X164331690Y-45932874D01*
%TO.N,Net-(J9-Pad5)*%
X145316780Y-43143692D02*
X164454232Y-43143692D01*
%TO.N,Net-(J9-Pad4)*%
X145316780Y-40603692D02*
X163394268Y-40603692D01*
X163394268Y-40603692D02*
X164431689Y-39566271D01*
%TO.N,Net-(J9-Pad3)*%
X145316780Y-38063692D02*
X162567635Y-38063692D01*
X162567635Y-38063692D02*
X164298357Y-36332970D01*
X164298357Y-36332970D02*
X164498355Y-36332970D01*
%TO.N,Net-(J9-Pad2)*%
X145316780Y-35523692D02*
X161807668Y-35523692D01*
X161807668Y-35523692D02*
X164098359Y-33233001D01*
X164098359Y-33233001D02*
X164498355Y-33233001D01*
%TO.N,Net-(J9-Pad1)*%
X145316780Y-32983692D02*
X161081034Y-32983692D01*
X161081034Y-32983692D02*
X164398356Y-29666370D01*
%TD*%
M02*
