%TF.GenerationSoftware,KiCad,Pcbnew,5.1.9-73d0e3b20d~88~ubuntu20.04.1*%
%TF.CreationDate,2021-01-19T19:28:40-06:00*%
%TF.ProjectId,typring-kicad,74797072-696e-4672-9d6b-696361642e6b,rev?*%
%TF.SameCoordinates,Original*%
%TF.FileFunction,Legend,Top*%
%TF.FilePolarity,Positive*%
%FSLAX46Y46*%
G04 Gerber Fmt 4.6, Leading zero omitted, Abs format (unit mm)*
G04 Created by KiCad (PCBNEW 5.1.9-73d0e3b20d~88~ubuntu20.04.1) date 2021-01-19 19:28:40*
%MOMM*%
%LPD*%
G01*
G04 APERTURE LIST*
%ADD10C,0.100000*%
%ADD11C,0.120000*%
%ADD12C,0.150000*%
G04 APERTURE END LIST*
D10*
X121777780Y-28146380D02*
X135780800Y-28146380D01*
X135780800Y-28146380D02*
X135780800Y-50163100D01*
X121777780Y-50163100D02*
X121777780Y-28146380D01*
X135780800Y-50163100D02*
X121777780Y-50163100D01*
X163277780Y-50063100D02*
X163277780Y-28046380D01*
X177280800Y-50063100D02*
X163277780Y-50063100D01*
X177280800Y-28046380D02*
X177280800Y-50063100D01*
X163277780Y-28046380D02*
X177280800Y-28046380D01*
X94096540Y-49954500D02*
X80093520Y-49954500D01*
X94096540Y-27937780D02*
X94096540Y-49954500D01*
X80093520Y-49954500D02*
X80093520Y-27937780D01*
X80093520Y-27937780D02*
X94096540Y-27937780D01*
D11*
%TO.C,J9*%
X143986780Y-31653692D02*
X145316780Y-31653692D01*
X143986780Y-32983692D02*
X143986780Y-31653692D01*
X143986780Y-34253692D02*
X146646780Y-34253692D01*
X146646780Y-34253692D02*
X146646780Y-49553692D01*
X143986780Y-34253692D02*
X143986780Y-49553692D01*
X143986780Y-49553692D02*
X146646780Y-49553692D01*
%TO.C,J8*%
X143701883Y-20903111D02*
X145031883Y-20903111D01*
X143701883Y-22233111D02*
X143701883Y-20903111D01*
X143701883Y-23503111D02*
X146361883Y-23503111D01*
X146361883Y-23503111D02*
X146361883Y-23563111D01*
X143701883Y-23503111D02*
X143701883Y-23563111D01*
X143701883Y-23563111D02*
X146361883Y-23563111D01*
%TO.C,J7*%
X122460000Y-23830000D02*
X122460000Y-21170000D01*
X117320000Y-23830000D02*
X122460000Y-23830000D01*
X117320000Y-21170000D02*
X122460000Y-21170000D01*
X117320000Y-23830000D02*
X117320000Y-21170000D01*
X116050000Y-23830000D02*
X114720000Y-23830000D01*
X114720000Y-23830000D02*
X114720000Y-22500000D01*
%TO.C,J6*%
X102670000Y-49430000D02*
X105330000Y-49430000D01*
X102670000Y-36670000D02*
X102670000Y-49430000D01*
X105330000Y-36670000D02*
X105330000Y-49430000D01*
X102670000Y-36670000D02*
X105330000Y-36670000D01*
X102670000Y-35400000D02*
X102670000Y-34070000D01*
X102670000Y-34070000D02*
X104000000Y-34070000D01*
%TO.C,J5*%
X102370000Y-22930000D02*
X105030000Y-22930000D01*
X102370000Y-22870000D02*
X102370000Y-22930000D01*
X105030000Y-22870000D02*
X105030000Y-22930000D01*
X102370000Y-22870000D02*
X105030000Y-22870000D01*
X102370000Y-21600000D02*
X102370000Y-20270000D01*
X102370000Y-20270000D02*
X103700000Y-20270000D01*
%TO.C,J4*%
X163068408Y-23363113D02*
X163068408Y-20703113D01*
X155388408Y-23363113D02*
X163068408Y-23363113D01*
X155388408Y-20703113D02*
X163068408Y-20703113D01*
X155388408Y-23363113D02*
X155388408Y-20703113D01*
X154118408Y-23363113D02*
X152788408Y-23363113D01*
X152788408Y-23363113D02*
X152788408Y-22033113D01*
%TO.C,J3*%
X70770000Y-22630000D02*
X73430000Y-22630000D01*
X70770000Y-22570000D02*
X70770000Y-22630000D01*
X73430000Y-22570000D02*
X73430000Y-22630000D01*
X70770000Y-22570000D02*
X73430000Y-22570000D01*
X70770000Y-21300000D02*
X70770000Y-19970000D01*
X70770000Y-19970000D02*
X72100000Y-19970000D01*
%TO.C,J2*%
X70570000Y-48990000D02*
X73230000Y-48990000D01*
X70570000Y-38770000D02*
X70570000Y-48990000D01*
X73230000Y-38770000D02*
X73230000Y-48990000D01*
X70570000Y-38770000D02*
X73230000Y-38770000D01*
X70570000Y-37500000D02*
X70570000Y-36170000D01*
X70570000Y-36170000D02*
X71900000Y-36170000D01*
%TO.C,J1*%
X83490000Y-19970000D02*
X83490000Y-22630000D01*
X88630000Y-19970000D02*
X83490000Y-19970000D01*
X88630000Y-22630000D02*
X83490000Y-22630000D01*
X88630000Y-19970000D02*
X88630000Y-22630000D01*
X89900000Y-19970000D02*
X91230000Y-19970000D01*
X91230000Y-19970000D02*
X91230000Y-21300000D01*
%TO.C,J9*%
D12*
X144983446Y-30106072D02*
X144983446Y-30820358D01*
X144935827Y-30963215D01*
X144840589Y-31058453D01*
X144697732Y-31106072D01*
X144602494Y-31106072D01*
X145507256Y-31106072D02*
X145697732Y-31106072D01*
X145792970Y-31058453D01*
X145840589Y-31010834D01*
X145935827Y-30867977D01*
X145983446Y-30677501D01*
X145983446Y-30296549D01*
X145935827Y-30201311D01*
X145888208Y-30153692D01*
X145792970Y-30106072D01*
X145602494Y-30106072D01*
X145507256Y-30153692D01*
X145459637Y-30201311D01*
X145412018Y-30296549D01*
X145412018Y-30534644D01*
X145459637Y-30629882D01*
X145507256Y-30677501D01*
X145602494Y-30725120D01*
X145792970Y-30725120D01*
X145888208Y-30677501D01*
X145935827Y-30629882D01*
X145983446Y-30534644D01*
%TO.C,J8*%
X144698549Y-19355491D02*
X144698549Y-20069777D01*
X144650930Y-20212634D01*
X144555692Y-20307872D01*
X144412835Y-20355491D01*
X144317597Y-20355491D01*
X145317597Y-19784063D02*
X145222359Y-19736444D01*
X145174740Y-19688825D01*
X145127121Y-19593587D01*
X145127121Y-19545968D01*
X145174740Y-19450730D01*
X145222359Y-19403111D01*
X145317597Y-19355491D01*
X145508073Y-19355491D01*
X145603311Y-19403111D01*
X145650930Y-19450730D01*
X145698549Y-19545968D01*
X145698549Y-19593587D01*
X145650930Y-19688825D01*
X145603311Y-19736444D01*
X145508073Y-19784063D01*
X145317597Y-19784063D01*
X145222359Y-19831682D01*
X145174740Y-19879301D01*
X145127121Y-19974539D01*
X145127121Y-20165015D01*
X145174740Y-20260253D01*
X145222359Y-20307872D01*
X145317597Y-20355491D01*
X145508073Y-20355491D01*
X145603311Y-20307872D01*
X145650930Y-20260253D01*
X145698549Y-20165015D01*
X145698549Y-19974539D01*
X145650930Y-19879301D01*
X145603311Y-19831682D01*
X145508073Y-19784063D01*
%TO.C,J7*%
X113172380Y-22833333D02*
X113886666Y-22833333D01*
X114029523Y-22880952D01*
X114124761Y-22976190D01*
X114172380Y-23119047D01*
X114172380Y-23214285D01*
X113172380Y-22452380D02*
X113172380Y-21785714D01*
X114172380Y-22214285D01*
%TO.C,J6*%
X103666666Y-32522380D02*
X103666666Y-33236666D01*
X103619047Y-33379523D01*
X103523809Y-33474761D01*
X103380952Y-33522380D01*
X103285714Y-33522380D01*
X104571428Y-32522380D02*
X104380952Y-32522380D01*
X104285714Y-32570000D01*
X104238095Y-32617619D01*
X104142857Y-32760476D01*
X104095238Y-32950952D01*
X104095238Y-33331904D01*
X104142857Y-33427142D01*
X104190476Y-33474761D01*
X104285714Y-33522380D01*
X104476190Y-33522380D01*
X104571428Y-33474761D01*
X104619047Y-33427142D01*
X104666666Y-33331904D01*
X104666666Y-33093809D01*
X104619047Y-32998571D01*
X104571428Y-32950952D01*
X104476190Y-32903333D01*
X104285714Y-32903333D01*
X104190476Y-32950952D01*
X104142857Y-32998571D01*
X104095238Y-33093809D01*
%TO.C,J5*%
X103366666Y-18722380D02*
X103366666Y-19436666D01*
X103319047Y-19579523D01*
X103223809Y-19674761D01*
X103080952Y-19722380D01*
X102985714Y-19722380D01*
X104319047Y-18722380D02*
X103842857Y-18722380D01*
X103795238Y-19198571D01*
X103842857Y-19150952D01*
X103938095Y-19103333D01*
X104176190Y-19103333D01*
X104271428Y-19150952D01*
X104319047Y-19198571D01*
X104366666Y-19293809D01*
X104366666Y-19531904D01*
X104319047Y-19627142D01*
X104271428Y-19674761D01*
X104176190Y-19722380D01*
X103938095Y-19722380D01*
X103842857Y-19674761D01*
X103795238Y-19627142D01*
%TO.C,J4*%
X151240788Y-22366446D02*
X151955074Y-22366446D01*
X152097931Y-22414065D01*
X152193169Y-22509303D01*
X152240788Y-22652160D01*
X152240788Y-22747398D01*
X151574122Y-21461684D02*
X152240788Y-21461684D01*
X151193169Y-21699779D02*
X151907455Y-21937874D01*
X151907455Y-21318827D01*
%TO.C,J3*%
X71766666Y-18422380D02*
X71766666Y-19136666D01*
X71719047Y-19279523D01*
X71623809Y-19374761D01*
X71480952Y-19422380D01*
X71385714Y-19422380D01*
X72147619Y-18422380D02*
X72766666Y-18422380D01*
X72433333Y-18803333D01*
X72576190Y-18803333D01*
X72671428Y-18850952D01*
X72719047Y-18898571D01*
X72766666Y-18993809D01*
X72766666Y-19231904D01*
X72719047Y-19327142D01*
X72671428Y-19374761D01*
X72576190Y-19422380D01*
X72290476Y-19422380D01*
X72195238Y-19374761D01*
X72147619Y-19327142D01*
%TO.C,J2*%
X71566666Y-34622380D02*
X71566666Y-35336666D01*
X71519047Y-35479523D01*
X71423809Y-35574761D01*
X71280952Y-35622380D01*
X71185714Y-35622380D01*
X71995238Y-34717619D02*
X72042857Y-34670000D01*
X72138095Y-34622380D01*
X72376190Y-34622380D01*
X72471428Y-34670000D01*
X72519047Y-34717619D01*
X72566666Y-34812857D01*
X72566666Y-34908095D01*
X72519047Y-35050952D01*
X71947619Y-35622380D01*
X72566666Y-35622380D01*
%TO.C,J1*%
X91682380Y-21633333D02*
X92396666Y-21633333D01*
X92539523Y-21680952D01*
X92634761Y-21776190D01*
X92682380Y-21919047D01*
X92682380Y-22014285D01*
X92682380Y-20633333D02*
X92682380Y-21204761D01*
X92682380Y-20919047D02*
X91682380Y-20919047D01*
X91825238Y-21014285D01*
X91920476Y-21109523D01*
X91968095Y-21204761D01*
%TD*%
M02*
